<?xml version="1.0" encoding="utf-8"?>
<!-- Generator: Adobe Illustrator 23.0.1, SVG Export Plug-In . SVG Version: 6.00 Build 0)  -->
<svg version="1.1" id="Calque_1" xmlns="http://www.w3.org/2000/svg" xmlns:xlink="http://www.w3.org/1999/xlink" x="0px" y="0px"
	 width="80px" height="70px" viewBox="0 0 80 70" style="enable-background:new 0 0 80 70;" xml:space="preserve">
<style type="text/css">
	.st0{fill:#00FF00;}
</style>
<g>
	<path class="st0" d="M79.5,35.58c0-2.37-0.68-4.24-2.03-5.61c-1.96-2.01-6.94-3.18-14.93-3.52c1.59-6.05,1.05-11.4-1.61-16.06
		c-1.39-2.43-3.42-4.42-6.08-5.97c-1.23-0.55-1.88-0.87-1.93-0.96c-1.54-1.09-3.47-1.94-5.77-2.56C42.18,0.2,37.68,1,33.64,3.32
		l-0.11,0.06c-5.9,3.38-9.74,8.88-11.5,16.49c-0.64,1.25-1.27,3.09-1.89,5.54c-0.05,0.33-0.1,0.66-0.14,0.99
		c-2.06,0.24-3.85,0.54-5.37,0.89c-3.47,0.98-5.81,2.36-7.01,4.15c-1.06,2.08-1.59,4.49-1.59,7.23c0,3.2,0.28,6.81,0.84,10.82
		c0.56,5.28,2.05,9.71,4.46,13.28c0.62,1.87,1.12,3,1.5,3.4C8.26,66.72,5.04,67,3.15,67c-0.29,0-0.82-0.15-1.59-0.44
		c-0.6,0-0.96,0.36-1.06,1.09v0.19c0.25,1,1.17,1.5,2.77,1.5c3.33-0.17,4.99-0.31,4.99-0.44c8.77-0.91,20.94-1.72,36.51-2.43
		c6.44,0,12.92-0.78,19.42-2.34c0.85-0.39,3.44-0.85,7.76-1.37c2.7-0.62,4.5-1.58,5.39-2.87c1.43-2.2,2.15-4.32,2.15-6.36
		c0-1.5-0.04-5.04-0.12-10.63C79.38,42.43,79.42,39.98,79.5,35.58z M51.87,5.53c1.67,1.22,2.93,2.56,3.77,4.03l0.08,0.13
		c-3.96-2.28-8.9-2.95-14.82-2.01c-3.74,0.89-6.22,1.68-7.44,2.37l-0.04-0.07c0.85-0.54,1.48-0.94,1.9-1.18l0.41-0.23
		C41.67,5.18,47.05,4.16,51.87,5.53z M33.98,5.69l1.17-0.67c2.78-1.59,6.11-2.32,9.99-2.19l0.04,0.07l-0.04,0.03
		c-3.55,0.48-7.09,1.73-10.6,3.74c-2.37,1.36-4.68,3.14-6.93,5.34l-0.07,0.04L27.51,12C29.48,9.14,31.64,7.04,33.98,5.69z
		 M23.98,21.14c1.63-3.11,4.34-5.74,8.12-7.91c1.91-1.09,4.05-2,6.43-2.72c5.92-1.51,10.77-1.4,14.58,0.33
		c2.35,1.15,4.01,2.38,4.97,3.71c0.91,2.33,1.26,5.14,1.03,8.44c-0.01,0.79-0.21,1.92-0.6,3.37c-0.37,0-0.74,0-1.11,0h-2.34
		c-6.36-0.5-12.23-0.75-17.61-0.75c-5.41,0-10.06,0.15-13.96,0.46C23.55,24.5,23.72,22.86,23.98,21.14z M10.91,55.44h-0.12
		c-0.56-2.51-0.95-4.46-1.15-5.83v-0.12h0.09c0.79,3.14,1.18,5.08,1.18,5.83V55.44z M67.06,59.9c-0.77,0.44-2.64,0.76-5.61,0.97
		c-4.88,0-19.01,1.09-42.37,3.27c-0.06,0-0.09-0.03-0.09-0.09c-0.17-1.7-0.63-2.56-1.4-2.56c-0.54,0-0.93,0.32-1.15,0.97
		c0,0.06,0.07,0.67,0.22,1.81h-0.22c-0.39,0-0.64-0.15-0.75-0.44c-0.58,0-1.01-0.81-1.28-2.43c-0.27-5.78-0.7-9.53-1.28-11.25
		c-2.47-6.98-3.71-11.59-3.71-13.81c0-1.29,0.5-2.24,1.5-2.87c0.96-0.64,3.28-1.28,6.98-1.9c13.16-1.5,24.48-2.24,33.98-2.24
		c2.91,0,7.01,0.75,12.31,2.24c3.68,1.37,6.12,3.32,7.33,5.83c2.76,7.38,4.15,12.01,4.15,13.9C75.67,54.68,72.8,57.55,67.06,59.9z
		 M76.51,37.7c0,0.83-0.03,2.14-0.09,3.93h-0.12c-0.71-2.49-1.41-4.44-2.12-5.83c-1.5-2.78-3.51-4.73-6.05-5.83v-0.12h0.12
		c0.62,0.08,0.94,0.16,0.94,0.22c2.08,0,4.14,0.68,6.17,2.03c0.77,0.67,1.15,2.08,1.15,4.24V37.7z"/>
	<path class="st0" d="M68.66,40.58v-0.12l-0.1-0.06c-0.23-0.15-0.39-0.26-0.49-0.34L68,40.01l-0.09,0.02
		c-0.35,0.06-0.64,0.2-0.85,0.4l-0.05,0.05L67,40.53c-0.04,0.2-0.07,0.4-0.09,0.59l-0.06,0.5l-0.27,0.4
		c-0.09,0.13-0.17,0.27-0.24,0.4c-0.48,0.43-0.85,0.76-1.11,0.99c-0.84,0.3-1.6,0.55-2.25,0.75c-0.34,0-0.6-0.05-0.78-0.14
		c-0.26-0.4-0.46-0.75-0.6-1.05v-1.19c0.34-0.99,0.66-1.75,0.96-2.27c0.28-0.28,0.56-0.57,0.83-0.85l0.8-0.85
		c0.71-0.4,1.3-0.73,1.74-0.96c0.27,0.02,0.64,0.03,1.14,0.03c0.12,0.13,0.23,0.24,0.34,0.34l0.04,0.04l0.05,0.01
		c0.12,0.03,0.27,0.04,0.47,0.04h0.09l0.4-0.4l-0.01-0.1c-0.02-0.2-0.03-0.48-0.03-0.83v-0.12l-0.69-0.41
		c-0.2-0.11-0.4-0.22-0.59-0.32l-0.05-0.02h-0.89l-0.05,0.02c-0.84,0.44-1.75,0.99-2.7,1.64l-0.03,0.02
		c-0.22,0.22-0.54,0.61-0.99,1.22c-0.38,0.52-0.7,0.89-0.94,1.1l-0.03,0.03l-0.02,0.03c-0.23,0.42-0.46,0.94-0.69,1.57
		c-0.06-0.48-0.12-1-0.17-1.56v-3.38c0.09-0.09,0.16-0.16,0.21-0.22l0.07-0.08l-0.19-0.84c-0.06-0.22-0.1-0.45-0.14-0.68l-0.03-0.18
		h-1.12L59,34.2l0.04,0.12c0.12,0.38,0.21,0.66,0.26,0.85c0.06,1.3,0.12,2.35,0.17,3.12l0.12,1.96c0.06,1.03,0.09,2.03,0.09,2.96
		c-0.04,0-0.08,0-0.13,0.01c-0.16-0.15-0.29-0.28-0.4-0.39c-0.76-0.88-1.32-1.57-1.67-2.04l-1.97-2.52
		c-0.13-0.22-0.26-0.44-0.37-0.65L54.82,37c-0.07-0.38-0.15-0.79-0.22-1.24l-0.01-0.07l-0.05-0.05c-0.1-0.1-0.26-0.25-0.46-0.46
		l-0.08-0.08l-0.44,0.08c-0.09,0.02-0.19,0.04-0.28,0.06l-0.1,0.02l-0.05,0.08c-0.07,0.12-0.13,0.22-0.19,0.31
		c0.03-0.5,0.05-0.82,0.04-0.97l0-0.18l-0.17-0.03c-0.21-0.04-0.37-0.05-0.48-0.05c-0.09,0.01-0.31,0.04-0.64,0.09l-0.11,0.02
		l-0.05,0.1c-0.11,0.23-0.18,0.4-0.21,0.52l0,0.04c-0.17-0.06-0.34-0.13-0.51-0.19l-0.04-0.01l-2.59,0.11l-0.05,0.01
		c-1.03,0.31-1.81,0.51-2.32,0.58c-0.04-0.5-0.06-0.94-0.06-1.31V34.2l-0.19-0.02c-0.53-0.05-0.86-0.08-0.99-0.08h-0.09l-0.06,0.06
		c-0.15,0.15-0.19,0.19-0.21,0.22l-0.05,0.06l0,0.08c0.01,0.26,0.03,0.51,0.05,0.76c-0.03-0.01-0.06-0.03-0.1-0.04
		c-0.22-0.08-0.43-0.16-0.65-0.24l-0.04-0.01l-2.59,0.11l-0.05,0.01c-1.03,0.31-1.81,0.51-2.32,0.58c-0.04-0.5-0.06-0.94-0.06-1.31
		V34.2l-0.19-0.02c-0.53-0.05-0.86-0.08-0.99-0.08h-0.09l-0.06,0.06c-0.15,0.15-0.19,0.19-0.21,0.22l-0.05,0.06l0,0.08
		c0.02,0.31,0.04,0.62,0.06,0.92l0.05,0.79l-0.35,0.35c-0.18-0.37-0.3-0.68-0.36-0.89l-0.02-0.08l-0.07-0.04
		c-0.62-0.38-1.08-0.66-1.39-0.84l-0.04-0.02c-0.18-0.06-0.36-0.11-0.54-0.15l-0.59-0.14l-0.07,0.03c-1.83,0.82-2.86,1.27-3.04,1.34
		l-0.03,0.01l-0.03,0.02c-0.42,0.36-0.82,0.82-1.19,1.35l-0.03,0.05l-0.01,0.05c-0.05,0.48-0.08,0.85-0.11,1.1
		c-0.12,0.17-0.23,0.38-0.33,0.62l0.1-1.77c0.11-0.59,0.22-1.16,0.34-1.69l0.02-0.11l-0.07-0.08c-0.12-0.14-0.28-0.36-0.49-0.67
		l-0.08-0.12l-0.14,0.02c-0.4,0.07-0.49,0.08-0.51,0.08h-0.2l-0.01,0.2c-0.15,1.94-0.28,3.85-0.38,5.68
		c-0.03,0.04-0.07,0.09-0.13,0.15c-0.59,0.08-1.15,0.2-1.66,0.37c-1,0.1-1.6,0.15-1.78,0.15c-0.08,0-0.14,0-0.19-0.01
		c0.09-0.83,0.17-1.67,0.24-2.5l0.25-2.71L24,35.93c-0.15-0.24-0.22-0.33-0.27-0.37c-0.06-0.06-0.18-0.15-0.38-0.28l-0.07-0.04
		l-0.08,0.01c-0.49,0.07-0.58,0.08-0.6,0.08H22.4l-0.06,2.49c-0.02,0.96-0.07,1.77-0.14,2.39l-0.15,1.17
		c-0.08,0.07-0.18,0.13-0.29,0.16c-0.17,0.04-0.34,0.08-0.51,0.12l-0.08,0.02l-0.05,0.07c-0.03,0.04-0.05,0.07-0.07,0.1
		c-0.13-0.14-0.27-0.27-0.4-0.39l-2.16-1.13c-0.69-0.35-1.38-0.7-2.06-1.05c-0.47-0.45-0.83-0.79-1.08-1.04
		c0.04-0.41,0.06-0.61,0.07-0.71c0.49-0.42,1.09-0.79,1.78-1.13c0.67-0.17,1.54-0.32,2.59-0.45c0.01,0.09,0.01,0.2,0.01,0.33v0.07
		l0.04,0.06c0.21,0.27,0.37,0.46,0.52,0.6l0.06,0.06h0.82l0.04-0.16c0.14-0.56,0.25-0.98,0.33-1.26l0.03-0.1l-0.06-0.08
		c-0.14-0.18-0.33-0.37-0.58-0.54c-0.2-0.14-0.41-0.28-0.61-0.41l-0.05-0.04H18.7l-0.05,0.03c-0.47,0.29-0.87,0.52-1.17,0.67
		c-0.15,0.02-0.3,0.04-0.45,0.06l-0.49,0.07l-0.04,0.02c-0.66,0.37-1.29,0.71-1.87,1.01l-0.05,0.03l-0.03,0.05
		c-0.24,0.36-0.42,0.64-0.53,0.82l-0.03,0.05v0.93l0.02,0.05c0.18,0.36,0.32,0.63,0.4,0.81l0.02,0.04l0.03,0.03
		c0.23,0.2,0.45,0.4,0.67,0.58l0.63,0.56l0.05,0.03c0.38,0.19,0.77,0.37,1.16,0.55l1.15,0.54c1.16,0.69,1.96,1.24,2.38,1.62v0.32
		c-0.24,0.16-0.44,0.29-0.58,0.38l-1.89-0.05c-0.56-0.01-1.13-0.02-1.68-0.03c0.02-0.18,0.02-0.26,0.02-0.3
		c-0.01-0.1-0.06-0.23-0.16-0.41l-0.05-0.08l-0.09-0.02c-0.26-0.06-0.45-0.08-0.57-0.08h-0.05l-0.05,0.02
		c-0.28,0.14-0.59,0.31-0.9,0.49l-0.12,0.07l0.01,0.14c0.05,0.53,0.19,0.93,0.41,1.21l0.04,0.04l0.05,0.02
		c0.31,0.12,0.68,0.22,1.11,0.3c0.37,0.06,0.73,0.11,1.1,0.17l1.4,0l0.03-0.01c0.72-0.18,1.37-0.33,1.94-0.45l0.04-0.01l0.03-0.02
		c0.56-0.36,1.04-0.73,1.42-1.12c-0.02,0.32-0.03,0.61-0.03,0.86v0.03l0.01,0.03c0.25,0.75,0.29,0.88,0.3,0.91l0.04,0.17h0.66
		l0.06-0.08c0.2-0.25,0.36-0.42,0.46-0.52l0.08-0.08l-0.02-0.11c-0.08-0.37-0.12-0.65-0.13-0.83c-0.01-0.17,0.01-0.6,0.04-1.28
		l1.93-0.43c0.6-0.13,1.2-0.26,1.79-0.4l-0.04,0.82c-0.02,0.37-0.03,0.75-0.03,1.11l0,0.03c0.11,0.88,0.26,1.1,0.4,1.2l0.15,0.11
		L27.77,45c0.05-0.05,0.16-0.15,0.45-0.37l0.07-0.05l0.01-0.08c0.05-0.3,0.08-0.56,0.11-0.77l0.09,0.21
		c0.08,0.18,0.16,0.35,0.24,0.53l0.04,0.06c0.51,0.53,0.9,0.94,1.16,1.2l0.06,0.06h1.94l0.03-0.01c0.32-0.1,0.67-0.28,1.04-0.55
		c0.3-0.23,0.59-0.46,0.88-0.69l0.05-0.04l0.02-0.07c0.05-0.18,0.16-0.37,0.31-0.54c0.17-0.18,0.35-0.35,0.52-0.53l1.32-2.48
		l0.48-1.59c0.12-0.41,0.25-0.82,0.37-1.23c0.05,0.03,0.09,0.07,0.13,0.12v1.39l-0.54,0.54v0.09c0,0.31,0.1,0.65,0.3,0.99l0.04,0.07
		l0.08,0.03c0.11,0.04,0.22,0.07,0.32,0.09c0.11,1.6,0.17,2.54,0.18,2.8l0,0.04l0.02,0.04c0.14,0.3,0.24,0.52,0.31,0.66l0.08,0.17
		l0.18-0.06c0.33-0.11,0.59-0.26,0.78-0.44l0.06-0.06v-0.09c0-0.4-0.04-1.03-0.11-1.94c-0.06-0.73-0.08-1.33-0.08-1.77l2.64-1.11
		l0.04-0.02c1.02-0.69,1.8-1.21,2.31-1.54l0.03-0.02L43.74,38c0.04-0.05,0.08-0.1,0.12-0.15l0.01,0.04L44,37.92
		c0.18,0.04,0.31,0.12,0.41,0.24v1.39l-0.54,0.54v0.09c0,0.31,0.1,0.65,0.3,0.99l0.04,0.07l0.08,0.03c0.11,0.04,0.22,0.07,0.32,0.09
		c0.11,1.6,0.17,2.54,0.18,2.8l0,0.04l0.02,0.04c0.14,0.3,0.24,0.52,0.31,0.66l0.08,0.17l0.18-0.06c0.33-0.11,0.59-0.26,0.78-0.44
		l0.06-0.06v-0.09c0-0.4-0.04-1.03-0.11-1.94c-0.06-0.73-0.08-1.33-0.08-1.77l2.64-1.11l0.04-0.02c1.02-0.69,1.8-1.21,2.31-1.54
		l0.03-0.02L51.08,38c0.05-0.07,0.1-0.13,0.15-0.2c-0.03,0.57-0.06,1.18-0.1,1.85c-0.13,2.2-0.2,3.7-0.23,4.46l0,0.05l0.02,0.05
		c0.1,0.22,0.17,0.35,0.19,0.39l0.05,0.1l0.11,0.02c0.15,0.03,0.34,0.04,0.58,0.04h0.09l0.56-0.56l-0.01-0.1
		c-0.05-0.38-0.09-0.67-0.11-0.87c0.02-0.7,0.07-1.51,0.14-2.38l0.21-2.56c0.04-0.51,0.08-0.97,0.11-1.37
		c0.08,0.15,0.17,0.32,0.29,0.5l-0.06,2.65c-0.02,0.66-0.03,1.23-0.03,1.69c0,0.47,0.01,0.93,0.03,1.35l0.06,1.76l0.04,0.05
		c0.13,0.19,0.25,0.35,0.36,0.48l0.03,0.03c0.08,0.07,0.17,0.08,0.22,0.08c0.07,0,0.14-0.02,0.2-0.07c0.06-0.04,0.18-0.13,0.55-0.48
		l0.07-0.07l0-0.1c-0.05-2.02-0.07-3.86-0.08-5.47c0.04,0.01,0.08,0.02,0.12,0.03c0.1,0.13,0.19,0.26,0.27,0.39
		c0.21,0.32,0.28,0.41,0.31,0.45c1.42,1.65,2.31,2.69,2.64,3.09c0.52,0.66,1.13,1.35,1.81,2.05l0.05,0.05l0.07,0.01
		c0.38,0.06,0.5,0.05,0.55,0.05c0.11-0.01,0.24-0.07,0.44-0.19l0.1-0.06v-0.72c0,0,0,0,0,0l0.02,0.04l0.03,0.03
		c0.37,0.33,0.69,0.6,0.95,0.79l0.05,0.04l0.06,0.01c0.52,0.05,0.91,0.09,1.17,0.11l0.05,0l1.32-0.54c0.43-0.17,0.86-0.35,1.29-0.53
		l0.06-0.02l0.04-0.05c0.1-0.14,0.18-0.25,0.24-0.33c0.04-0.01,0.08-0.03,0.12-0.04c-0.08,0.68-0.13,1.22-0.16,1.63l0,0.03
		l0.01,0.03c0.13,0.53,0.29,0.91,0.5,1.17l0.08,0.1l0.13-0.02c0.74-0.14,0.97-0.27,1.07-0.36l0.1-0.08l-0.03-0.13
		c-0.05-0.21-0.09-0.37-0.15-0.47c-0.02-0.05-0.07-0.12-0.23-0.33c0.03-0.77,0.07-1.55,0.12-2.36l0.5-1
		c0.17-0.34,0.35-0.68,0.52-1.01l0.03-0.07l-0.01-0.07C68.67,40.68,68.66,40.59,68.66,40.58z M43.38,36.37
		c-0.03,0.09-0.06,0.2-0.11,0.34l-1.1,1.1c-1.1,0.61-2.08,1.09-2.92,1.43c-0.22,0-0.48,0.02-0.78,0.05l0.09-2.11
		c0.57-0.17,1.29-0.41,2.15-0.72c1.07-0.07,1.74-0.1,1.99-0.11C42.89,36.34,43.11,36.35,43.38,36.37z M50.72,36.37
		c-0.03,0.09-0.06,0.2-0.11,0.34l-1.1,1.1c-1.1,0.61-2.08,1.09-2.92,1.43c-0.22,0-0.48,0.02-0.78,0.05l0.09-2.11
		c0.57-0.17,1.29-0.41,2.15-0.72c1.07-0.07,1.74-0.1,1.99-0.11C50.23,36.34,50.46,36.35,50.72,36.37z M34.06,42.33
		c-0.22,0.33-0.46,0.64-0.72,0.91c-0.15,0.17-0.44,0.45-0.84,0.82c-0.35,0.17-0.62,0.3-0.82,0.39h-0.9
		c-0.31-0.15-0.54-0.26-0.66-0.33c-0.28-0.49-0.47-0.98-0.56-1.45c0-1.19,0.09-2.29,0.26-3.26c0.47-0.87,0.87-1.48,1.19-1.81
		c0.64-0.19,1.12-0.34,1.45-0.44l0.07-0.02l0.04-0.06c0.13-0.18,0.25-0.32,0.36-0.43l0.09-0.09l-0.04-0.12
		c-0.07-0.24-0.14-0.44-0.19-0.61c0.19,0,0.39,0.01,0.6,0.02l0.86,0.05c0.53,0.35,0.94,0.68,1.22,0.97
		c0.14,0.58,0.21,1.14,0.21,1.67c-0.14,0.49-0.39,1.12-0.75,1.88C34.46,41.42,34.17,42.05,34.06,42.33z"/>
	<path class="st0" d="M53.75,53.38v-0.13l-0.11-0.07c-0.25-0.16-0.43-0.29-0.54-0.37l-0.08-0.06l-0.1,0.02
		c-0.38,0.07-0.7,0.21-0.94,0.45l-0.05,0.05l-0.01,0.07c-0.05,0.22-0.08,0.44-0.1,0.65l-0.06,0.55l-0.29,0.44
		c-0.1,0.15-0.19,0.29-0.27,0.44c-0.53,0.48-0.94,0.84-1.22,1.09c-0.93,0.33-1.76,0.61-2.47,0.82c-0.37,0-0.66-0.05-0.86-0.15
		c-0.28-0.44-0.5-0.83-0.66-1.15V54.7c0.37-1.09,0.73-1.93,1.06-2.49c0.31-0.31,0.62-0.63,0.91-0.94l0.88-0.94
		c0.79-0.45,1.43-0.8,1.91-1.06c0.29,0.02,0.71,0.03,1.25,0.03c0.13,0.14,0.26,0.26,0.37,0.37l0.04,0.04l0.06,0.01
		c0.13,0.03,0.3,0.04,0.52,0.04h0.1l0.45-0.44l-0.01-0.11c-0.02-0.22-0.04-0.52-0.04-0.91v-0.13l-0.76-0.45
		c-0.22-0.12-0.43-0.24-0.65-0.35l-0.05-0.03h-0.97l-0.05,0.03c-0.93,0.48-1.93,1.09-2.97,1.8l-0.03,0.03
		c-0.24,0.24-0.59,0.68-1.08,1.34c-0.42,0.58-0.77,0.98-1.03,1.21l-0.03,0.03l-0.02,0.04c-0.35,0.64-0.7,1.5-1.05,2.56
		c-0.09-0.22-0.15-0.36-0.18-0.43c-0.15-0.76-0.27-1.38-0.35-1.83c-0.18-0.92-0.33-1.92-0.47-2.98l-0.36-2.78L43.2,46.4
		c-0.14,0.03-0.33,0.04-0.56,0.04h-0.16l-1.81,4.56c-0.41,1.04-0.74,1.84-0.96,2.38c-0.03,0.08-0.06,0.15-0.1,0.22
		c-0.02-0.27-0.04-0.68-0.04-1.23v-0.2l-0.19-0.04c-0.21-0.04-0.44-0.14-0.67-0.29c-0.23-0.16-0.46-0.32-0.68-0.48l-0.05-0.04
		l-0.06-0.01c-0.26-0.03-0.55-0.04-0.86-0.05c0-0.02,0-0.04,0-0.06c1.07-0.72,2.05-1.48,2.92-2.26L40,48.94l0.02-0.04
		c0.21-0.44,0.37-0.76,0.5-0.96l0.08-0.13l-0.09-0.13c-0.07-0.1-0.17-0.27-0.28-0.48l-0.04-0.07l-0.07-0.03
		c-0.18-0.08-0.41-0.19-0.69-0.3l-0.04-0.02h-1.42l-0.07,0.07c-0.07,0.07-0.16,0.12-0.29,0.16l-0.5,0.08l-0.04,0.03
		c-0.78,0.53-1.44,0.97-1.97,1.3c0-0.01,0-0.01,0-0.02c0-0.05,0.01-0.16,0.03-0.37c0.02-0.19,0.04-0.33,0.04-0.44
		c0-0.18-0.01-0.39-0.03-0.63l-0.02-0.22h-1.09l-0.04,0.19c-0.09,0.45-0.18,0.89-0.26,1.34l-0.24,1.28
		c-0.16,0.16-0.28,0.29-0.37,0.38l-0.07,0.07v0.1c0,1.21-0.06,2.05-0.17,2.5l-0.01,0.06c0,0.73-0.05,1.68-0.16,2.84
		c-0.15,1.6-0.24,2.54-0.26,2.87l0,0.07l0.03,0.06c0.23,0.4,0.4,0.7,0.5,0.9l0.07,0.12H34l3.85-2.67l0.02-0.03
		c0.05-0.07,0.1-0.14,0.15-0.21v0.49l0.13,0.07c0.04,0.02,0.08,0.04,0.1,0.05c0,0.14,0.01,0.26,0.01,0.37c0,0.12,0,0.21-0.01,0.26
		c-0.01,0.08-0.06,0.27-0.22,0.73l-0.05,0.13l0.09,0.1c0.24,0.28,0.43,0.48,0.56,0.61c0.12,0.12,0.22,0.15,0.31,0.15
		c0.07,0,0.13-0.02,0.16-0.04c0.05-0.03,0.15-0.09,0.5-0.41l0.07-0.06l0.01-0.09c0.05-0.43,0.14-1.04,0.26-1.8
		c1.42-0.57,2.49-1.06,3.19-1.45c0.15,0.03,0.26,0.05,0.34,0.06l0.1,1.46c0.08,0.89,0.2,1.44,0.38,1.73l0.07,0.11h1.28l0.05-1.22
		c0.36,0.32,0.68,0.59,0.94,0.78l0.05,0.04l0.06,0.01c0.57,0.06,1,0.1,1.28,0.12l0.06,0l1.46-0.59c0.47-0.19,0.94-0.39,1.42-0.58
		l0.06-0.03l0.04-0.05c0.11-0.15,0.2-0.27,0.26-0.37c0.04-0.02,0.08-0.03,0.13-0.04c-0.09,0.75-0.14,1.35-0.17,1.8l0,0.04l0.01,0.03
		c0.14,0.58,0.32,1,0.55,1.29l0.09,0.11l0.14-0.03c0.82-0.16,1.06-0.3,1.18-0.39l0.11-0.09l-0.03-0.14c-0.05-0.23-0.1-0.4-0.16-0.52
		c-0.03-0.05-0.08-0.14-0.26-0.36c0.04-0.84,0.08-1.72,0.13-2.59l0.55-1.1c0.19-0.37,0.38-0.74,0.57-1.11l0.04-0.07l-0.01-0.08
		C53.76,53.49,53.76,53.4,53.75,53.38z M38.61,48.42c-0.44,0.48-0.77,0.85-1,1.11c-0.2,0.08-0.42,0.16-0.65,0.23l-0.06,0.02
		l-0.04,0.04c-0.32,0.33-0.71,0.65-1.17,0.95c-0.02,0.01-0.22,0.13-0.97,0.58c0.01-0.18,0.03-0.38,0.06-0.6
		c0.34-0.52,0.72-0.97,1.11-1.35c0.4-0.23,0.81-0.47,1.22-0.73c0.41-0.06,0.91-0.15,1.5-0.27C38.62,48.41,38.62,48.41,38.61,48.42z
		 M38.29,54.04c-0.22,0.44-0.39,0.78-0.51,1.01l-1.32,1.32c-0.72,0.46-1.26,0.81-1.63,1.06h-0.35c-0.07,0-0.13,0-0.19-0.01
		c0.03-0.91,0.09-2.13,0.2-3.63c0.32-0.19,0.7-0.45,1.13-0.76c0.71,0,1.54-0.03,2.48-0.08c0.05,0.05,0.1,0.1,0.15,0.13
		C38.25,53.49,38.26,53.81,38.29,54.04z M43.17,54.21l-1.29,0.44c-0.35,0.12-0.71,0.24-1.06,0.37c0.16-0.53,0.42-1.41,0.8-2.63
		c0.37-1.24,0.65-2.27,0.82-3.07c0.14-0.18,0.2-0.22,0.21-0.22c0,0,0.03-0.02,0.11-0.04C42.9,51.13,43.04,52.87,43.17,54.21z"/>
</g>
</svg>
