<svg version="1.1" id="Calque_1" xmlns="http://www.w3.org/2000/svg" xmlns:xlink="http://www.w3.org/1999/xlink" x="0px" y="0px"
	 width="32px" height="32px" viewBox="0 0 32 32" style="enable-background:new 0 0 32 32;" xml:space="preserve">
<g>
	<path d="M29.12,6.86C26.23,2.75,21.4,0.02,16,0.02c-5.42,0-10.21,2.71-13.1,6.84h26.17H29.12z"/>
	<path class="st0" d="M29.12,6.86C26.23,2.75,21.4,0.02,16,0.02c-5.42,0-10.21,2.71-13.1,6.84h26.17H29.12z"/>
	<path d="M0.62,11.69h30.75c0.39,1.39,0.59,2.79,0.59,4.31c0,8.83-7.15,15.98-15.97,15.98S0.03,24.83,0.03,16
		C0.03,14.51,0.24,13.06,0.62,11.69 M27.43,21.7l-5.35,0.01c-0.07,0.24-0.1,0.49-0.1,0.76c0,1.55,1.26,2.81,2.8,2.81
		c1.55,0,2.8-1.26,2.8-2.81c0-0.27-0.04-0.52-0.11-0.77H27.43z M27.09,20.86c-0.51-0.72-1.36-1.2-2.3-1.2c-0.95,0-1.79,0.48-2.3,1.2
		H27.09L27.09,20.86z"/>
</g>
</svg>
