<?xml version="1.0" encoding="utf-8"?>
<!-- Generator: Adobe Illustrator 23.0.1, SVG Export Plug-In . SVG Version: 6.00 Build 0)  -->
<svg version="1.1" id="Calque_1" xmlns="http://www.w3.org/2000/svg" xmlns:xlink="http://www.w3.org/1999/xlink" x="0px" y="0px"
	 width="30px" height="25px" viewBox="0 0 30 25" style="enable-background:new 0 0 30 25;" xml:space="preserve">
<style type="text/css">
	.st0{display:none;}
	.st1{display:inline;}
	.st2{fill:#00FF00;}
	.st3{fill:#00F900;}
</style>
<g class="st0">
	<g class="st1">
		<g>
			<g>
				<path class="st2" d="M7.59,7.1c1.99,0,3.71,0.35,5.17,1.05c0.31,0.18,0.65,0.44,1,0.78c1.06,1.02,1.59,2.14,1.59,3.37
					c0,1.34-0.53,2.46-1.59,3.37c-1.04,0.79-2.45,1.19-4.2,1.19H9.05c-1.71,0-3.45-0.35-5.22-1.04c-0.67-0.29-1.26-0.63-1.78-1.03
					c-1.06-0.89-1.59-1.79-1.59-2.71c0-0.99,0.56-1.85,1.69-2.59c0.44-0.86,1.14-1.48,2.12-1.87C5.28,7.28,6.39,7.1,7.59,7.1z
					 M0.93,12.09v0.03c0,0.76,0.47,1.53,1.41,2.3c1.13,0.85,2.48,1.4,4.07,1.68c1.02,0.2,1.99,0.31,2.9,0.31
					c2.64,0,4.35-0.76,5.14-2.27c0.29-0.6,0.44-1.21,0.44-1.83c0-0.42-0.1-0.88-0.29-1.4h-0.02c0,1.83-1.34,3.27-4.02,4.32
					c-1.23,0.43-2.4,0.64-3.5,0.64c-2.21,0-3.79-0.63-4.75-1.9c-0.44-0.66-0.66-1.33-0.66-2.02v-0.41c0-0.35,0.06-0.75,0.19-1.22
					C1.23,10.83,0.93,11.42,0.93,12.09z M2.26,11.17v0.19c0,0.92,0.42,1.68,1.25,2.27c0.48,0.32,1.06,0.47,1.75,0.47h0.07
					c0.22,0,0.55-0.04,0.98-0.11c0.07,0,0.13,0.06,0.16,0.17c0,0.15-0.19,0.23-0.56,0.25c-0.14,0.02-0.34,0.04-0.61,0.05
					c-1.14,0-2.07-0.37-2.78-1.12v0.02C2.87,14.1,3.56,14.64,4.57,15c0.7,0.26,1.54,0.39,2.51,0.39c1.14,0,2.39-0.26,3.75-0.78
					c2.18-0.98,3.27-2.23,3.27-3.73v-0.03l-0.01-0.12h-0.02c0,0.16-0.09,0.25-0.26,0.27h-0.03c-0.11-0.02-0.17-0.07-0.17-0.17v-0.02
					c0-0.05,0.03-0.1,0.08-0.17c0-0.68-0.48-1.25-1.45-1.69c-0.94-0.4-2.07-0.59-3.41-0.59c-2.16,0-4.1,0.4-5.84,1.19
					C2.66,9.7,2.51,9.83,2.51,9.95C2.34,10.36,2.26,10.76,2.26,11.17z M7.91,7.73H7.88c-1.23,0-2.44,0.21-3.63,0.63
					C3.84,8.54,3.54,8.72,3.34,8.88h0.02C4.97,8.24,6.8,7.91,8.84,7.91c1.04,0,2.03,0.14,2.97,0.41h0.02V8.31
					c-0.99-0.39-2.06-0.58-3.22-0.58H8.24c-0.05,0-0.11,0-0.17-0.01C8.02,7.72,7.97,7.73,7.91,7.73z"/>
			</g>
			<g>
				<path class="st2" d="M9.56,17.02H9.05c-1.72,0-3.49-0.35-5.28-1.05l-0.01,0c-0.67-0.29-1.28-0.65-1.81-1.05l-0.01,0
					C0.86,14,0.3,13.05,0.3,12.09c0-1.03,0.58-1.93,1.73-2.7c0.45-0.87,1.19-1.51,2.18-1.9l0.01,0c1.02-0.35,2.15-0.53,3.37-0.53
					c2,0,3.76,0.36,5.24,1.06l0.01,0.01c0.32,0.18,0.67,0.45,1.03,0.8c1.09,1.05,1.64,2.22,1.64,3.48c0,1.38-0.55,2.55-1.65,3.49
					l-0.01,0.01C12.78,16.61,11.34,17.02,9.56,17.02z M3.89,15.68c1.75,0.68,3.48,1.02,5.16,1.02h0.51c1.71,0,3.09-0.39,4.11-1.15
					c1.02-0.88,1.54-1.97,1.54-3.25c0-1.18-0.52-2.28-1.55-3.26c-0.34-0.33-0.67-0.58-0.96-0.76c-1.43-0.68-3.15-1.03-5.1-1.03
					c-1.18,0-2.28,0.17-3.26,0.51C3.39,8.14,2.7,8.75,2.29,9.56L2.27,9.6L2.23,9.62c-1.08,0.71-1.62,1.54-1.62,2.46
					c0,0.87,0.52,1.74,1.53,2.59C2.65,15.06,3.24,15.4,3.89,15.68z M9.3,16.56c-0.91,0-1.9-0.1-2.93-0.31
					c-1.6-0.28-2.98-0.85-4.13-1.71l-0.01,0c-0.97-0.8-1.46-1.62-1.46-2.42v-0.03c0-0.71,0.32-1.35,0.95-1.88l0.37-0.31l-0.13,0.47
					c-0.12,0.45-0.18,0.85-0.18,1.18v0.41c0,0.65,0.21,1.3,0.63,1.93c0.92,1.22,2.48,1.83,4.62,1.83c1.08,0,2.24-0.21,3.45-0.63
					c2.6-1.02,3.92-2.43,3.92-4.18v-0.15h0.28l0.04,0.1c0.2,0.54,0.3,1.03,0.3,1.46c0,0.64-0.15,1.27-0.45,1.9
					C13.76,15.77,11.99,16.56,9.3,16.56z M6.77,16.01c0.89,0.16,1.74,0.24,2.53,0.24c2.57,0,4.25-0.74,5-2.19
					c0.28-0.58,0.42-1.17,0.42-1.76c0-0.2-0.03-0.43-0.07-0.66c-0.32,1.54-1.68,2.79-4.04,3.72l-0.01,0
					c-1.24,0.43-2.43,0.65-3.55,0.65C6.96,16.02,6.86,16.02,6.77,16.01z M1.57,10.8c-0.32,0.38-0.48,0.81-0.48,1.28v0.03
					c0,0.66,0.39,1.34,1.17,2.03c-0.02-0.03-0.05-0.06-0.07-0.09l-0.01-0.01c-0.46-0.68-0.69-1.39-0.69-2.1v-0.41
					C1.49,11.32,1.52,11.07,1.57,10.8z M7.08,15.54c-0.98,0-1.85-0.13-2.56-0.4c-1.04-0.37-1.77-0.95-2.15-1.7l-0.02-0.03v-0.44
					l0.26,0.28c0.67,0.71,1.57,1.07,2.67,1.07c0.26-0.01,0.46-0.02,0.58-0.05l0.02,0c0.3-0.02,0.39-0.07,0.41-0.09
					c0-0.01-0.01-0.02-0.01-0.02c-0.42,0.07-0.74,0.1-0.97,0.1H5.25c-0.71,0-1.33-0.17-1.83-0.5l0,0c-0.87-0.62-1.31-1.43-1.31-2.4
					v-0.19c0-0.41,0.08-0.84,0.25-1.25c0.02-0.17,0.2-0.33,0.56-0.51c1.76-0.8,3.74-1.2,5.91-1.2c1.35,0,2.52,0.2,3.47,0.61
					c1.03,0.47,1.55,1.09,1.55,1.83v0.05l-0.03,0.04c-0.04,0.05-0.05,0.08-0.05,0.08l0,0.01c0,0,0,0.01,0,0.01
					c0,0,0.01,0.01,0.03,0.01h0.01c0.1-0.01,0.11-0.06,0.11-0.12v-0.15h0.31l0.03,0.27v0.03c0,1.56-1.13,2.86-3.36,3.87l-0.01,0
					C9.52,15.28,8.24,15.54,7.08,15.54z M3.41,14.21c0.33,0.26,0.74,0.47,1.22,0.64c0.68,0.25,1.51,0.38,2.46,0.38
					c1.12,0,2.36-0.26,3.69-0.77c1.98-0.89,3.04-2.02,3.16-3.34c-0.03,0.01-0.07,0.02-0.1,0.02l-0.02,0l-0.05,0
					c-0.19-0.03-0.3-0.15-0.3-0.32v-0.02c0-0.07,0.03-0.14,0.08-0.22c-0.02-0.59-0.48-1.1-1.36-1.5c-0.91-0.38-2.04-0.58-3.35-0.58
					c-2.12,0-4.07,0.39-5.78,1.17C2.69,9.86,2.66,9.95,2.66,9.95v0.03l-0.01,0.02c-0.16,0.39-0.24,0.78-0.24,1.16v0.19
					c0,0.87,0.39,1.58,1.18,2.15c0.45,0.3,1.01,0.45,1.66,0.45h0.07c0.22,0,0.54-0.04,0.96-0.1l0.03,0c0.09,0,0.24,0.04,0.3,0.29
					l0,0.02v0.02c0,0.36-0.51,0.39-0.7,0.4c-0.15,0.03-0.35,0.04-0.63,0.05c0,0,0,0,0,0C4.59,14.62,3.96,14.49,3.41,14.21z
					 M6.28,14.14L6.28,14.14L6.28,14.14z M3.38,9.04H2.9l0.34-0.27c0.21-0.17,0.52-0.35,0.95-0.55l0.01,0
					c1.2-0.42,2.44-0.64,3.68-0.64h0.03c0.05,0,0.09,0,0.12-0.01l0.03-0.01l0.03,0c0.05,0.01,0.11,0.01,0.15,0.01h0.37
					c1.17,0,2.27,0.2,3.28,0.59l0.1,0.04v0.27h-0.19l-0.02-0.01c-0.92-0.27-1.91-0.4-2.92-0.4C6.83,8.07,5,8.39,3.41,9.02L3.38,9.04
					z"/>
			</g>
			<g>
				<path class="st2" d="M4.12,8.65L4.3,8.68h0.06c0.58,0,3.18,0.2,7.81,0.59c1.13,0.04,1.7,0.13,1.7,0.26l0.03,0.15v0.12
					c0,0.27-0.3,0.41-0.91,0.41c-4.21,0.41-7.18,0.76-8.9,1.05v0.03c0.19,0.02,0.77,0.04,1.73,0.06c2.35-0.04,4.7-0.12,7.05-0.23
					h0.06c0.2,0,0.33,0.14,0.38,0.41c0,0.27-0.27,0.41-0.82,0.41c-1.48,0.08-3.23,0.2-5.27,0.38v0.03c3.55,0.11,5.33,0.2,5.33,0.29
					c0.14,0.1,0.2,0.22,0.2,0.38c0,0.2-0.14,0.32-0.41,0.38v0.03h1.14c0.25,0.06,0.38,0.19,0.38,0.38v0.03
					c0,0.27-0.2,0.41-0.59,0.41c0.04,0.06,0.06,0.12,0.06,0.18v0.15c0,0.2-0.52,0.36-1.55,0.47c-0.09,0-0.18-0.08-0.26-0.23
					c-3.46,0.06-5.35,0.09-5.68,0.09c-1.97,0-2.96-0.07-2.96-0.2c-0.06-0.06-0.12-0.17-0.18-0.32c-0.1-0.07-0.15-0.18-0.15-0.32V14
					c0-0.31,0.33-0.5,0.99-0.56c1.57-0.2,2.46-0.29,2.66-0.29v-0.03c-1.72-0.08-2.58-0.25-2.58-0.53c-0.03,0-0.05-0.07-0.06-0.2
					v-0.03c0-0.06,0.04-0.16,0.12-0.29c-0.63,0-1.08-0.13-1.35-0.38c-0.1-0.13-0.15-0.24-0.15-0.35c0-0.5,1.04-0.86,3.13-1.08
					c0.66-0.12,1.87-0.27,3.63-0.47V9.76c-2.55-0.23-4.21-0.35-5-0.35v0.03c0,0.12-0.09,0.2-0.26,0.23H3.62
					C3.12,9.52,2.86,9.33,2.86,9.12V9.09c0-0.27,0.33-0.41,0.99-0.41C4.02,8.68,4.11,8.67,4.12,8.65z"/>
			</g>
			<g>
				<path class="st2" d="M11.8,15.21L11.8,15.21c-0.15,0-0.27-0.08-0.37-0.23c-3.38,0.06-5.26,0.09-5.58,0.09
					c-0.98,0-1.73-0.02-2.23-0.05c-0.54-0.04-0.83-0.09-0.89-0.25c-0.06-0.07-0.11-0.17-0.16-0.29c-0.09-0.08-0.18-0.21-0.18-0.43
					V14c0-0.42,0.39-0.67,1.16-0.73c0.35-0.04,0.66-0.08,0.94-0.12c-0.08-0.01-0.16-0.03-0.23-0.04c-0.33-0.07-0.69-0.17-0.77-0.42
					c-0.07-0.09-0.07-0.23-0.07-0.3l0-0.04c0-0.04,0.01-0.08,0.02-0.12c-0.54-0.03-0.93-0.17-1.19-0.42L2.22,11.8
					c-0.12-0.16-0.18-0.31-0.18-0.46c0-0.63,1.01-1.02,3.29-1.26C5.76,10,6.44,9.91,7.35,9.8c-1.52-0.13-2.6-0.2-3.23-0.21
					C4.08,9.69,3.98,9.8,3.74,9.85l-0.02,0H3.6L3.57,9.84C3.35,9.78,2.68,9.58,2.68,9.12V9.09c0-0.39,0.4-0.59,1.17-0.59
					c0.08,0,0.13,0,0.16-0.01l0.03-0.04L4.31,8.5h0.04c0.59,0,3.15,0.19,7.82,0.59c1.54,0.05,1.85,0.18,1.87,0.42l0.03,0.15v0.13
					c0,0.39-0.36,0.59-1.08,0.59c-2.96,0.29-5.32,0.55-7.05,0.78c2.29-0.04,4.61-0.12,6.91-0.23l0.01,0h0.06
					c0.17,0,0.46,0.07,0.56,0.55l0,0.02v0.02c0,0.49-0.54,0.59-0.99,0.59c-0.72,0.04-1.52,0.09-2.39,0.15
					c0.43,0.02,0.8,0.04,1.12,0.05c0.44,0.02,0.78,0.05,1.01,0.07c0.21,0.02,0.38,0.04,0.46,0.13c0.16,0.13,0.24,0.3,0.24,0.5
					c0,0.06-0.01,0.15-0.05,0.23h0.63l0.02,0.01c0.45,0.11,0.52,0.4,0.52,0.55v0.03c0,0.19-0.07,0.49-0.53,0.57c0,0,0,0.01,0,0.01
					v0.15C13.52,14.83,13.23,15.05,11.8,15.21L11.8,15.21z M11.63,14.61l0.05,0.1c0.06,0.1,0.09,0.13,0.1,0.14
					c1.11-0.12,1.33-0.27,1.37-0.31v-0.13c0-0.01,0-0.03-0.03-0.08l-0.17-0.27h0.32c0.41,0,0.41-0.16,0.41-0.23V13.8
					c0-0.05,0-0.14-0.22-0.2h-1.3v-0.35l0.14-0.03c0.27-0.06,0.27-0.16,0.27-0.2c0-0.1-0.04-0.17-0.13-0.23l0,0
					c-0.18-0.04-1.13-0.13-5.22-0.26l-0.17-0.01v-0.37l0.16-0.01c2.03-0.17,3.8-0.3,5.27-0.38l0.01,0c0.23,0,0.62-0.03,0.64-0.22
					c-0.05-0.24-0.15-0.24-0.2-0.24h-0.05c-2.35,0.12-4.72,0.2-7.05,0.23l0,0l0,0c-0.97-0.02-1.54-0.04-1.74-0.06l-0.16-0.02V11.1
					l0.15-0.03c1.71-0.29,4.71-0.65,8.91-1.06l0.02,0c0.22,0,0.73-0.02,0.73-0.23v-0.1L13.7,9.6c-0.08-0.04-0.4-0.12-1.54-0.16
					l-0.01,0c-4.6-0.39-7.23-0.58-7.8-0.58l-0.09,0L4.14,8.83C4.08,8.85,3.99,8.86,3.86,8.86c-0.5,0-0.82,0.09-0.82,0.23v0.03
					c0,0.09,0.16,0.24,0.61,0.38h0.04c0.04-0.01,0.1-0.03,0.1-0.05V9.23h0.18c0.79,0,2.48,0.12,5.02,0.35l0.16,0.01v0.35L9,9.97
					c-1.74,0.19-2.96,0.35-3.62,0.47l-0.01,0c-2.76,0.3-2.97,0.77-2.97,0.9c0,0.06,0.03,0.14,0.1,0.23
					c0.23,0.21,0.64,0.32,1.21,0.32h0.31l-0.15,0.27c-0.09,0.15-0.09,0.2-0.09,0.21l0,0.02c0,0.01,0,0.02,0,0.03h0.06v0.16
					c0.05,0.06,0.37,0.27,2.4,0.36l0.17,0.01v0.38H6.23c-0.2,0-1.08,0.1-2.64,0.29l-0.01,0C3.27,13.65,2.75,13.74,2.75,14v0.03
					c0,0.11,0.04,0.15,0.07,0.17l0.04,0.03l0.02,0.05c0.07,0.17,0.12,0.24,0.14,0.26l0.02,0.02c0.13,0.05,0.66,0.13,2.81,0.13
					c0.32,0,2.23-0.03,5.67-0.09L11.63,14.61z"/>
			</g>
			<g>
				<path class="st2" d="M22.71,19.26c-0.54-0.08-1.09-0.16-1.63-0.25c-0.62-0.11-1.15-0.25-1.59-0.43
					c-0.29-0.36-0.48-0.91-0.54-1.63c0.47-0.27,0.91-0.51,1.33-0.73c0.16,0,0.43,0.04,0.79,0.12c0.12,0.22,0.19,0.38,0.19,0.48
					c0.01,0.1-0.01,0.35-0.06,0.74c0.93,0,1.88,0.01,2.85,0.04l2.92,0.08c0.24-0.16,0.6-0.4,1.09-0.73v-0.79
					c-0.61-0.6-1.85-1.45-3.71-2.55l-1.74-0.82c-0.58-0.27-1.15-0.54-1.72-0.82l-0.95-0.83c-0.33-0.28-0.66-0.57-1-0.87
					c-0.13-0.28-0.33-0.68-0.61-1.22V7.85c0.17-0.28,0.44-0.68,0.79-1.22c0.87-0.46,1.81-0.96,2.8-1.52l0.67-0.09
					c0.23-0.03,0.48-0.06,0.73-0.09c0.47-0.23,1.07-0.58,1.81-1.04h2.25c0.3,0.2,0.6,0.4,0.91,0.61c0.34,0.24,0.6,0.49,0.79,0.74
					c-0.11,0.41-0.28,1.04-0.49,1.88h-0.84c-0.2-0.19-0.44-0.48-0.74-0.86c0-0.36-0.02-0.64-0.05-0.84
					c-1.75,0.21-3.17,0.45-4.25,0.73c-1.11,0.54-2.06,1.14-2.85,1.83c0,0.09-0.04,0.53-0.13,1.33c0.39,0.38,0.98,0.95,1.76,1.7
					c1.03,0.52,2.06,1.05,3.11,1.58l3.15,1.63c0.66,0.6,1.3,1.3,1.94,2.13v0.61c-0.56,0.56-1.25,1.11-2.07,1.63
					c-0.85,0.17-1.81,0.4-2.9,0.67H22.71z"/>
			</g>
			<g>
				<path class="st2" d="M25.39,21.8c0,0.72-0.14,1.48-0.41,2.28c-0.13,0.28-0.3,0.41-0.52,0.41H24.4c-0.3,0-0.48-0.19-0.52-0.57
					c0-0.03,0.03-0.24,0.1-0.62c0-0.17-0.03-0.26-0.1-0.26c0.03-0.52,0.05-0.9,0.05-1.14v-0.47c0-1.29-0.28-6.3-0.83-15.03
					c-0.17-2.82-0.26-4.53-0.26-5.13c0.06-0.52,0.27-0.78,0.62-0.78h0.05c0.45,0,0.67,0.57,0.67,1.71
					C24.99,13.13,25.39,19.66,25.39,21.8z"/>
			</g>
		</g>
	</g>
</g>
<g class="st0">
	<g class="st1">
		<g>
			<g>
				<path class="st2" d="M3.04,17.66c-0.17-0.09-0.65-0.37-1.43-0.86c-0.26-0.4-0.6-0.93-1.01-1.59c-0.01-0.11-0.04-0.33-0.1-0.66
					l0.29-1.3c0.1-0.43,0.19-0.86,0.29-1.29l1.16-1.86c0.39-0.62,0.79-1.24,1.21-1.88l0.96-0.73c0.32-0.24,0.65-0.5,1.01-0.76
					C5.57,6.68,5.95,6.58,6.6,6.41l1.79,0.31c0.2,0.13,0.5,0.32,0.89,0.59C9.4,7.61,9.52,7.9,9.63,8.19
					c-0.06,0.36-0.22,0.66-0.46,0.9c-0.32-0.03-0.52-0.06-0.61-0.1C8.48,8.97,8.35,8.87,8.16,8.7c-0.1-0.24-0.13-0.55-0.08-0.96
					C7.99,7.74,7.46,7.72,6.51,7.68L5.57,8.16C5.26,8.32,4.94,8.48,4.62,8.64c-0.28,0.29-0.71,0.71-1.3,1.27l-0.74,1.3
					c-0.25,0.43-0.5,0.87-0.75,1.32l-0.42,2.37c0.12,0.28,0.26,0.59,0.44,0.93c0.36,0.35,0.71,0.67,1.03,0.95l1.83,0.32
					c0.58-0.22,1.19-0.47,1.85-0.74c0.5-0.39,1.26-0.97,2.27-1.74c0.01,0.14,0.05,0.28,0.1,0.44c0.09,0.05,0.27,0.12,0.52,0.23
					c-0.75,0.52-1.89,1.29-3.4,2.31c-0.27,0.04-0.54,0.09-0.81,0.15L4.41,17.9L3.04,17.66z"/>
				<path class="st2" d="M8.74,18.65c-0.09-0.15-0.18-0.34-0.29-0.56l0.25-1.83c0.06-0.46,0.14-0.95,0.23-1.45
					c0.09-0.5,0.2-1.1,0.35-1.8l0.58-2.9C9.6,9.5,9.49,9.06,9.54,8.77c0.15-0.15,0.36-0.38,0.63-0.7c0.11,0,0.22,0,0.33-0.01l0.36,0
					c0.18,0.26,0.32,0.46,0.42,0.58c-0.01,0.51-0.01,0.98,0,1.41l0.26,0.76c0.08,0.26,0.18,0.52,0.28,0.79l1.64,3.08
					c0.29,0.58,0.76,1.41,1.41,2.51c0.12,0.17,0.26,0.37,0.42,0.59c0.19,0.03,0.35,0.05,0.46,0.04c0.19-1.06,0.35-2.19,0.49-3.4
					l0.24-2.13c0.09-0.84,0.22-1.97,0.4-3.4c-0.02-0.22-0.06-0.55-0.12-1l0.34-0.24l0.91,0.16c-0.01,0.26,0,0.51,0.02,0.77
					l0.04,0.81C18,9.48,17.89,9.56,17.74,9.66l-0.66,3.73c-0.08,0.97-0.13,1.81-0.15,2.53l-0.68,3.85c-0.19,0.08-0.32,0.11-0.39,0.1
					c-0.08,0-0.25-0.05-0.53-0.14c-0.6-0.87-1.11-1.71-1.54-2.52c-0.28-0.5-1.03-1.77-2.25-3.81c-0.04-0.06-0.12-0.24-0.24-0.51
					c-0.08-0.18-0.16-0.36-0.26-0.55c-0.23-0.1-0.39-0.19-0.46-0.25c-0.32,1.81-0.65,3.89-1.01,6.22c-0.37,0.24-0.59,0.37-0.65,0.39
					c-0.04,0.02-0.07,0.03-0.09,0.02C8.8,18.7,8.77,18.68,8.74,18.65z"/>
			</g>
			<g>
				<path class="st2" d="M18.92,18.83c-0.06-0.2-0.14-0.51-0.25-0.92c0.05-0.35,0.19-1.63,0.42-3.86c-0.18-0.07-0.37-0.16-0.57-0.26
					c-0.16-0.44-0.21-0.84-0.15-1.2l0.82-0.57l0.35-1.99c-0.13-0.29-0.35-0.5-0.66-0.62c0-0.22-0.02-0.56-0.07-1.04l0.93-0.65
					l0.13-1.15c0.04-0.39,0.08-0.79,0.13-1.2c0.04-0.03,0.13-0.1,0.29-0.21c0.16,0.03,0.56,0.13,1.22,0.32
					c-0.1,0.55-0.18,1.22-0.25,2.01c0.67,0.06,1.82-0.01,3.46-0.21l3.3,0.43c0.26,0.15,0.52,0.29,0.77,0.45
					c0.31,0.19,0.54,0.38,0.68,0.57l-0.18,1l-0.82,0.71c-0.27,0.24-0.55,0.49-0.82,0.74c-0.74,0.32-1.85,0.8-3.32,1.46l-3.83,0.87
					c-0.12,0.59-0.23,1.43-0.34,2.5c-0.11,1.17-0.2,2-0.29,2.5C19.66,18.65,19.33,18.77,18.92,18.83z M20.46,12.09
					c0.55,0.03,1,0.07,1.36,0.14c1.2-0.24,2.6-0.65,4.2-1.21l1.75-1.23c0.21-0.39,0.34-0.65,0.39-0.8
					c-0.48-0.13-0.89-0.22-1.21-0.27c-0.32-0.05-1.2-0.15-2.63-0.31c-1.3,0.23-2.35,0.39-3.15,0.47c-0.12,0.55-0.24,1.09-0.36,1.63
					L20.46,12.09z"/>
			</g>
		</g>
	</g>
</g>
<g>
	<g>
		<g>
			<path class="st3" d="M21.92,16.16c-0.2,0.12-0.38,0.28-0.54,0.5l-0.02,0.01c-0.07,0.03-0.12,0.02-0.15-0.04l-0.01-0.01
				c-0.07-0.12,0.13-0.34,0.6-0.66l0.13-0.08c0.03-0.02,0.07-0.03,0.11-0.05l0.01-0.01l-0.01-0.01c-0.31,0.06-0.61,0.18-0.91,0.36
				c-0.64,0.38-1.08,0.88-1.32,1.48c-0.11,0.43-0.08,0.79,0.1,1.09l0.03,0.05c0.29,0.48,0.84,0.62,1.65,0.44
				c0.35-0.09,0.65-0.22,0.9-0.37c0.41-0.24,0.71-0.54,0.9-0.9c-0.04-0.07-0.01-0.14,0.09-0.2c0.18-0.52,0.16-0.95-0.05-1.3
				c-0.23-0.38-0.62-0.53-1.16-0.44C22.12,16.06,22,16.11,21.92,16.16z M23.71,16.3c0.21,0.35,0.26,0.79,0.15,1.31
				c-0.17,0.62-0.57,1.11-1.2,1.48l-0.01,0.01c-0.72,0.43-1.43,0.58-2.14,0.45c-0.37-0.12-0.64-0.32-0.8-0.59l-0.03-0.06
				c-0.34-0.56-0.3-1.18,0.11-1.86c0.31-0.46,0.71-0.84,1.21-1.13c0.82-0.49,1.55-0.54,2.19-0.16
				C23.42,15.92,23.59,16.11,23.71,16.3z"/>
			<g>
				<path class="st2" d="M19.61,16.57l0.04,0.01c0.03-0.01,0.06-0.01,0.09-0.01h0.02c0.03,0,0.06,0.02,0.08,0.07
					c0,0.03,0.77,0.05,2.32,0.07c0.5,0.03,0.91,0.07,1.23,0.11c0.24,0.04,0.37,0.08,0.37,0.12c0.01,0.01,0.01,0.02,0.01,0.03v0.02
					c0,0.01-0.01,0.03-0.02,0.06h0.04c0.58,0,0.89,0.03,0.94,0.08c0.02,0.03,0.04,0.06,0.04,0.09c0,0.07-0.04,0.1-0.11,0.1
					c-0.06-0.04-0.31-0.07-0.74-0.07c-1.91,0-3.19-0.05-3.83-0.16c-0.27-0.02-0.42-0.04-0.46-0.05c-0.03-0.02-0.04-0.05-0.04-0.09
					v-0.01c0.01-0.06,0.05-0.1,0.09-0.1c0.25,0.01,0.44,0.02,0.57,0.02h0.09v-0.01c-0.54-0.02-0.81-0.08-0.81-0.2v-0.01
					C19.54,16.6,19.57,16.57,19.61,16.57z"/>
			</g>
			<g>
				<path class="st2" d="M15.24,0.15h0.65c2.68,0,5.4,1.17,8.15,3.51c2.9,2.99,4.34,6.22,4.34,9.68v0.05c0,3.73-1.42,6.74-4.25,9.03
					c-2.19,1.58-4.73,2.38-7.62,2.38h-0.15c-0.11,0-0.19,0.02-0.24,0.05l-0.29-0.05h-0.2c-2.95,0-5.77-0.94-8.44-2.82
					c-1.65-1.4-2.66-2.54-3.03-3.42c-1.21-1.93-1.82-4.04-1.82-6.31c0-3.16,1.19-5.89,3.56-8.2c0.93-0.8,1.94-1.43,3.01-1.89
					C11,0.82,13.1,0.15,15.24,0.15z M13.37,1.68v0.05c1.58,0.17,3.31,0.84,5.19,1.99c1.58,1.24,2.68,2.37,3.3,3.4
					c0.53,0.88,0.8,1.57,0.8,2.08v0.1c-0.03,0.39-0.2,0.59-0.5,0.59h-0.1c-0.33,0-0.49-0.31-0.49-0.94
					c-1.08-2.41-3.12-4.24-6.12-5.48c-1.26-0.35-2.3-0.53-3.12-0.54c-1.74,0-2.93,0.36-3.6,1.09C6.85,5.68,5.91,7.14,5.91,8.4v0.05
					c0,0.5,0.24,0.96,0.73,1.38l0.05,0.24c-0.07,0.34-0.23,0.5-0.49,0.5H6.16c-0.35,0-0.73-0.38-1.14-1.14
					c-0.1-0.29-0.16-0.66-0.2-1.09C4.86,8.03,4.9,7.69,4.97,7.36V7.31H4.92c-0.86,1.7-1.29,3.38-1.29,5.04
					c0,3.07,1.3,5.82,3.91,8.25c1.07,0.84,2.19,1.49,3.35,1.97c1.94,0.66,3.64,0.99,5.09,0.99c5.08,0,8.53-2.04,10.36-6.12
					c0.5-1.35,0.75-2.66,0.75-3.95V13.2c0-2.73-1.17-5.43-3.51-8.1c-2.48-2.41-5.08-3.61-7.79-3.61h-0.24
					C14.85,1.48,14.12,1.55,13.37,1.68z"/>
			</g>
			<g>
				<path class="st2" d="M23.55,6.79c0.93,0,1.4,0.23,1.4,0.68c2.59,0.14,3.88,0.38,3.88,0.72c0.06,0,0.09,0.08,0.09,0.23v0.27
					c0,0.38-0.35,0.6-1.04,0.68c0,0.03-0.06,0.05-0.18,0.05c-0.26,0-0.41-0.17-0.45-0.5c-1.82-0.18-3.61-0.27-5.37-0.27
					C16.64,9.3,12.56,9.63,9.65,9.63c-0.68,0.06-1.92,0.11-3.7,0.14c-0.33-0.14-0.5-0.34-0.5-0.59V9.13c0-0.2,0.09-0.38,0.27-0.54
					H5.68c-0.5,0-1.74,0.24-3.7,0.72C1.89,9.34,1.71,9.36,1.44,9.36C1.3,9.31,1.18,9.2,1.08,9.04V8.82c0-0.36,0.57-0.63,1.71-0.81
					c1.92-0.66,6.27-0.99,13.04-0.99C19.21,6.86,21.78,6.79,23.55,6.79z"/>
			</g>
		</g>
	</g>
</g>
</svg>
