<?xml version="1.0" encoding="utf-8"?>
<!-- Generator: Adobe Illustrator 23.0.1, SVG Export Plug-In . SVG Version: 6.00 Build 0)  -->
<svg version="1.1" id="Calque_1" xmlns="http://www.w3.org/2000/svg" xmlns:xlink="http://www.w3.org/1999/xlink" x="0px" y="0px"
	 width="49px" height="25px" viewBox="0 0 49 25" style="enable-background:new 0 0 49 25;" xml:space="preserve">
<style type="text/css">
	.st0{display:none;}
	.st1{display:inline;}
	.st2{fill:#00FF00;}
	.st3{fill:#00F900;}
</style>
<g class="st0">
	<g class="st1">
		<g>
			<g>
				<path class="st2" d="M17.09,7.1c1.99,0,3.71,0.35,5.17,1.05c0.31,0.18,0.65,0.44,1,0.78c1.06,1.02,1.59,2.14,1.59,3.37
					c0,1.34-0.53,2.46-1.59,3.37c-1.04,0.79-2.45,1.19-4.2,1.19h-0.51c-1.71,0-3.45-0.35-5.22-1.04c-0.67-0.29-1.26-0.63-1.78-1.03
					c-1.06-0.89-1.59-1.79-1.59-2.71c0-0.99,0.56-1.85,1.69-2.59c0.44-0.86,1.14-1.48,2.12-1.87C14.78,7.28,15.89,7.1,17.09,7.1z
					 M10.43,12.09v0.03c0,0.76,0.47,1.53,1.41,2.3c1.13,0.85,2.48,1.4,4.07,1.68c1.02,0.2,1.99,0.31,2.9,0.31
					c2.64,0,4.35-0.76,5.14-2.27c0.29-0.6,0.44-1.21,0.44-1.83c0-0.42-0.1-0.88-0.29-1.4h-0.02c0,1.83-1.34,3.27-4.02,4.32
					c-1.23,0.43-2.4,0.64-3.5,0.64c-2.21,0-3.79-0.63-4.75-1.9c-0.44-0.66-0.66-1.33-0.66-2.02v-0.41c0-0.35,0.06-0.75,0.19-1.22
					C10.73,10.83,10.43,11.42,10.43,12.09z M11.76,11.17v0.19c0,0.92,0.42,1.68,1.25,2.27c0.48,0.32,1.06,0.47,1.75,0.47h0.07
					c0.22,0,0.55-0.04,0.98-0.11c0.07,0,0.13,0.06,0.16,0.17c0,0.15-0.19,0.23-0.56,0.25c-0.14,0.02-0.34,0.04-0.61,0.05
					c-1.14,0-2.07-0.37-2.78-1.12v0.02c0.37,0.72,1.06,1.27,2.07,1.63c0.7,0.26,1.54,0.39,2.51,0.39c1.14,0,2.39-0.26,3.75-0.78
					c2.18-0.98,3.27-2.23,3.27-3.73v-0.03l-0.01-0.12h-0.02c0,0.16-0.09,0.25-0.26,0.27h-0.03c-0.11-0.02-0.17-0.07-0.17-0.17v-0.02
					c0-0.05,0.03-0.1,0.08-0.17c0-0.68-0.48-1.25-1.45-1.69c-0.94-0.4-2.07-0.59-3.41-0.59c-2.16,0-4.1,0.4-5.84,1.19
					c-0.32,0.15-0.47,0.29-0.47,0.41C11.84,10.36,11.76,10.76,11.76,11.17z M17.41,7.73h-0.03c-1.23,0-2.44,0.21-3.63,0.63
					c-0.41,0.19-0.72,0.36-0.92,0.52h0.02c1.62-0.65,3.44-0.97,5.49-0.97c1.04,0,2.03,0.14,2.97,0.41h0.02V8.31
					c-0.99-0.39-2.06-0.58-3.22-0.58h-0.37c-0.05,0-0.11,0-0.17-0.01C17.52,7.72,17.47,7.73,17.41,7.73z"/>
			</g>
			<g>
				<path class="st2" d="M19.06,17.02h-0.51c-1.72,0-3.49-0.35-5.28-1.05l-0.01,0c-0.67-0.29-1.28-0.65-1.81-1.05l-0.01,0
					C10.36,14,9.8,13.05,9.8,12.09c0-1.03,0.58-1.93,1.73-2.7c0.45-0.87,1.19-1.51,2.18-1.9l0.01,0c1.02-0.35,2.15-0.53,3.37-0.53
					c2,0,3.76,0.36,5.24,1.06l0.01,0.01c0.32,0.18,0.67,0.45,1.03,0.8C24.45,9.87,25,11.04,25,12.3c0,1.38-0.55,2.55-1.65,3.49
					l-0.01,0.01C22.28,16.61,20.84,17.02,19.06,17.02z M13.39,15.68c1.75,0.68,3.48,1.02,5.16,1.02h0.51c1.71,0,3.09-0.39,4.11-1.15
					c1.02-0.88,1.54-1.97,1.54-3.25c0-1.18-0.52-2.28-1.55-3.26c-0.34-0.33-0.67-0.58-0.96-0.76c-1.43-0.68-3.15-1.03-5.1-1.03
					c-1.18,0-2.28,0.17-3.26,0.51c-0.94,0.37-1.62,0.97-2.04,1.79L11.77,9.6l-0.03,0.02c-1.08,0.71-1.62,1.54-1.62,2.46
					c0,0.87,0.52,1.74,1.53,2.59C12.15,15.06,12.74,15.4,13.39,15.68z M18.8,16.56c-0.91,0-1.9-0.1-2.93-0.31
					c-1.6-0.28-2.98-0.85-4.13-1.71l-0.01,0c-0.97-0.8-1.46-1.62-1.46-2.42v-0.03c0-0.71,0.32-1.35,0.95-1.88l0.37-0.31l-0.13,0.47
					c-0.12,0.45-0.18,0.85-0.18,1.18v0.41c0,0.65,0.21,1.3,0.63,1.93c0.92,1.22,2.48,1.83,4.62,1.83c1.08,0,2.24-0.21,3.45-0.63
					c2.6-1.02,3.92-2.43,3.92-4.18v-0.15h0.28l0.04,0.1c0.2,0.54,0.3,1.03,0.3,1.46c0,0.64-0.15,1.27-0.45,1.9
					C23.26,15.77,21.49,16.56,18.8,16.56z M16.27,16.01c0.89,0.16,1.74,0.24,2.53,0.24c2.57,0,4.25-0.74,5-2.19
					c0.28-0.58,0.42-1.17,0.42-1.76c0-0.2-0.03-0.43-0.07-0.66c-0.32,1.54-1.68,2.79-4.04,3.72l-0.01,0
					c-1.24,0.43-2.43,0.65-3.55,0.65C16.46,16.02,16.36,16.02,16.27,16.01z M11.07,10.8c-0.32,0.38-0.48,0.81-0.48,1.28v0.03
					c0,0.66,0.39,1.34,1.17,2.03c-0.02-0.03-0.05-0.06-0.07-0.09l-0.01-0.01c-0.46-0.68-0.69-1.39-0.69-2.1v-0.41
					C10.99,11.32,11.02,11.07,11.07,10.8z M16.58,15.54c-0.98,0-1.85-0.13-2.56-0.4c-1.04-0.37-1.77-0.95-2.15-1.7l-0.02-0.03v-0.44
					l0.26,0.28c0.67,0.71,1.57,1.07,2.67,1.07c0.26-0.01,0.46-0.02,0.58-0.05l0.02,0c0.3-0.02,0.39-0.07,0.41-0.09
					c0-0.01-0.01-0.02-0.01-0.02c-0.42,0.07-0.74,0.1-0.97,0.1h-0.07c-0.71,0-1.33-0.17-1.83-0.5l0,0c-0.87-0.62-1.31-1.43-1.31-2.4
					v-0.19c0-0.41,0.08-0.84,0.25-1.25c0.02-0.17,0.2-0.33,0.56-0.51c1.76-0.8,3.74-1.2,5.91-1.2c1.35,0,2.52,0.2,3.47,0.61
					c1.03,0.47,1.55,1.09,1.55,1.83v0.05l-0.03,0.04c-0.04,0.05-0.05,0.08-0.05,0.08l0,0.01c0,0,0,0.01,0,0.01
					c0,0,0.01,0.01,0.03,0.01h0.01c0.1-0.01,0.11-0.06,0.11-0.12v-0.15h0.31l0.03,0.27v0.03c0,1.56-1.13,2.86-3.36,3.87l-0.01,0
					C19.02,15.28,17.74,15.54,16.58,15.54z M12.91,14.21c0.33,0.26,0.74,0.47,1.22,0.64c0.68,0.25,1.51,0.38,2.46,0.38
					c1.12,0,2.36-0.26,3.69-0.77c1.98-0.89,3.04-2.02,3.16-3.34c-0.03,0.01-0.07,0.02-0.1,0.02l-0.02,0l-0.05,0
					c-0.19-0.03-0.3-0.15-0.3-0.32v-0.02c0-0.07,0.03-0.14,0.08-0.22c-0.02-0.59-0.48-1.1-1.36-1.5c-0.91-0.38-2.04-0.58-3.35-0.58
					c-2.12,0-4.07,0.39-5.78,1.17c-0.36,0.17-0.38,0.27-0.38,0.27v0.03l-0.01,0.02c-0.16,0.39-0.24,0.78-0.24,1.16v0.19
					c0,0.87,0.39,1.58,1.18,2.15c0.45,0.3,1.01,0.45,1.66,0.45h0.07c0.22,0,0.54-0.04,0.96-0.1l0.03,0c0.09,0,0.24,0.04,0.3,0.29
					l0,0.02v0.02c0,0.36-0.51,0.39-0.7,0.4c-0.15,0.03-0.35,0.04-0.63,0.05c0,0,0,0,0,0C14.09,14.62,13.46,14.49,12.91,14.21z
					 M15.78,14.14L15.78,14.14L15.78,14.14z M12.88,9.04H12.4l0.34-0.27c0.21-0.17,0.52-0.35,0.95-0.55l0.01,0
					c1.2-0.42,2.44-0.64,3.68-0.64h0.03c0.05,0,0.09,0,0.12-0.01l0.03-0.01l0.03,0c0.05,0.01,0.11,0.01,0.15,0.01h0.37
					c1.17,0,2.27,0.2,3.28,0.59l0.1,0.04v0.27h-0.19l-0.02-0.01c-0.92-0.27-1.91-0.4-2.92-0.4c-2.01,0-3.84,0.32-5.43,0.96
					L12.88,9.04z"/>
			</g>
			<g>
				<path class="st2" d="M13.62,8.65l0.18,0.03h0.06c0.58,0,3.18,0.2,7.81,0.59c1.13,0.04,1.7,0.13,1.7,0.26l0.03,0.15v0.12
					c0,0.27-0.3,0.41-0.91,0.41c-4.21,0.41-7.18,0.76-8.9,1.05v0.03c0.19,0.02,0.77,0.04,1.73,0.06c2.35-0.04,4.7-0.12,7.05-0.23
					h0.06c0.2,0,0.33,0.14,0.38,0.41c0,0.27-0.27,0.41-0.82,0.41c-1.48,0.08-3.23,0.2-5.27,0.38v0.03c3.55,0.11,5.33,0.2,5.33,0.29
					c0.14,0.1,0.2,0.22,0.2,0.38c0,0.2-0.14,0.32-0.41,0.38v0.03h1.14c0.25,0.06,0.38,0.19,0.38,0.38v0.03
					c0,0.27-0.2,0.41-0.59,0.41c0.04,0.06,0.06,0.12,0.06,0.18v0.15c0,0.2-0.52,0.36-1.55,0.47c-0.09,0-0.18-0.08-0.26-0.23
					c-3.46,0.06-5.35,0.09-5.68,0.09c-1.97,0-2.96-0.07-2.96-0.2c-0.06-0.06-0.12-0.17-0.18-0.32c-0.1-0.07-0.15-0.18-0.15-0.32V14
					c0-0.31,0.33-0.5,0.99-0.56c1.57-0.2,2.46-0.29,2.66-0.29v-0.03c-1.72-0.08-2.58-0.25-2.58-0.53c-0.03,0-0.05-0.07-0.06-0.2
					v-0.03c0-0.06,0.04-0.16,0.12-0.29c-0.63,0-1.08-0.13-1.35-0.38c-0.1-0.13-0.15-0.24-0.15-0.35c0-0.5,1.04-0.86,3.13-1.08
					c0.66-0.12,1.87-0.27,3.63-0.47V9.76c-2.55-0.23-4.21-0.35-5-0.35v0.03c0,0.12-0.09,0.2-0.26,0.23h-0.09
					c-0.51-0.15-0.76-0.34-0.76-0.56V9.09c0-0.27,0.33-0.41,0.99-0.41C13.52,8.68,13.61,8.67,13.62,8.65z"/>
			</g>
			<g>
				<path class="st2" d="M21.3,15.21L21.3,15.21c-0.15,0-0.27-0.08-0.37-0.23c-3.38,0.06-5.26,0.09-5.58,0.09
					c-0.98,0-1.73-0.02-2.23-0.05c-0.54-0.04-0.83-0.09-0.89-0.25c-0.06-0.07-0.11-0.17-0.16-0.29c-0.09-0.08-0.18-0.21-0.18-0.43
					V14c0-0.42,0.39-0.67,1.16-0.73c0.35-0.04,0.66-0.08,0.94-0.12c-0.08-0.01-0.16-0.03-0.23-0.04c-0.33-0.07-0.69-0.17-0.77-0.42
					c-0.07-0.09-0.07-0.23-0.07-0.3l0-0.04c0-0.04,0.01-0.08,0.02-0.12c-0.54-0.03-0.93-0.17-1.19-0.42l-0.02-0.02
					c-0.12-0.16-0.18-0.31-0.18-0.46c0-0.63,1.01-1.02,3.29-1.26c0.44-0.08,1.12-0.17,2.03-0.28c-1.52-0.13-2.6-0.2-3.23-0.21
					c-0.04,0.1-0.15,0.21-0.38,0.26l-0.02,0H13.1l-0.03-0.01c-0.22-0.07-0.89-0.26-0.89-0.73V9.09c0-0.39,0.4-0.59,1.17-0.59
					c0.08,0,0.13,0,0.16-0.01l0.03-0.04l0.27,0.04h0.04c0.59,0,3.15,0.19,7.82,0.59c1.54,0.05,1.85,0.18,1.87,0.42l0.03,0.15v0.13
					c0,0.39-0.36,0.59-1.08,0.59c-2.96,0.29-5.32,0.55-7.05,0.78c2.29-0.04,4.61-0.12,6.91-0.23l0.01,0h0.06
					c0.17,0,0.46,0.07,0.56,0.55l0,0.02v0.02c0,0.49-0.54,0.59-0.99,0.59c-0.72,0.04-1.52,0.09-2.39,0.15
					c0.43,0.02,0.8,0.04,1.12,0.05c0.44,0.02,0.78,0.05,1.01,0.07c0.21,0.02,0.38,0.04,0.46,0.13c0.16,0.13,0.24,0.3,0.24,0.5
					c0,0.06-0.01,0.15-0.05,0.23h0.63l0.02,0.01c0.45,0.11,0.52,0.4,0.52,0.55v0.03c0,0.19-0.07,0.49-0.53,0.57c0,0,0,0.01,0,0.01
					v0.15C23.02,14.83,22.73,15.05,21.3,15.21L21.3,15.21z M21.13,14.61l0.05,0.1c0.06,0.1,0.09,0.13,0.1,0.14
					c1.11-0.12,1.33-0.27,1.37-0.31v-0.13c0-0.01,0-0.03-0.03-0.08l-0.17-0.27h0.32c0.41,0,0.41-0.16,0.41-0.23V13.8
					c0-0.05,0-0.14-0.22-0.2h-1.3v-0.35l0.14-0.03c0.27-0.06,0.27-0.16,0.27-0.2c0-0.1-0.04-0.17-0.13-0.23l0,0
					c-0.18-0.04-1.13-0.13-5.22-0.26l-0.17-0.01v-0.37l0.16-0.01c2.03-0.17,3.8-0.3,5.27-0.38l0.01,0c0.23,0,0.62-0.03,0.64-0.22
					c-0.05-0.24-0.15-0.24-0.2-0.24h-0.05c-2.35,0.12-4.72,0.2-7.05,0.23l0,0l0,0c-0.97-0.02-1.54-0.04-1.74-0.06l-0.16-0.02V11.1
					l0.15-0.03c1.71-0.29,4.71-0.65,8.91-1.06l0.02,0c0.22,0,0.73-0.02,0.73-0.23v-0.1L23.2,9.6c-0.08-0.04-0.4-0.12-1.54-0.16
					l-0.01,0c-4.6-0.39-7.23-0.58-7.8-0.58l-0.09,0l-0.12-0.02c-0.07,0.02-0.16,0.02-0.29,0.02c-0.5,0-0.82,0.09-0.82,0.23v0.03
					c0,0.09,0.16,0.24,0.61,0.38h0.04c0.04-0.01,0.1-0.03,0.1-0.05V9.23h0.18c0.79,0,2.48,0.12,5.02,0.35l0.16,0.01v0.35L18.5,9.97
					c-1.74,0.19-2.96,0.35-3.62,0.47l-0.01,0c-2.76,0.3-2.97,0.77-2.97,0.9c0,0.06,0.03,0.14,0.1,0.23
					c0.23,0.21,0.64,0.32,1.21,0.32h0.31l-0.15,0.27c-0.09,0.15-0.09,0.2-0.09,0.21l0,0.02c0,0.01,0,0.02,0,0.03h0.06v0.16
					c0.05,0.06,0.37,0.27,2.4,0.36l0.17,0.01v0.38h-0.18c-0.2,0-1.08,0.1-2.64,0.29l-0.01,0c-0.31,0.03-0.83,0.11-0.83,0.38v0.03
					c0,0.11,0.04,0.15,0.07,0.17l0.04,0.03l0.02,0.05c0.07,0.17,0.12,0.24,0.14,0.26l0.02,0.02c0.13,0.05,0.66,0.13,2.81,0.13
					c0.32,0,2.23-0.03,5.67-0.09L21.13,14.61z"/>
			</g>
			<g>
				<path class="st2" d="M32.21,19.26c-0.54-0.08-1.09-0.16-1.63-0.25c-0.62-0.11-1.15-0.25-1.59-0.43
					c-0.29-0.36-0.48-0.91-0.54-1.63c0.47-0.27,0.91-0.51,1.33-0.73c0.16,0,0.43,0.04,0.79,0.12c0.12,0.22,0.19,0.38,0.19,0.48
					c0.01,0.1-0.01,0.35-0.06,0.74c0.93,0,1.88,0.01,2.85,0.04l2.92,0.08c0.24-0.16,0.6-0.4,1.09-0.73v-0.79
					c-0.61-0.6-1.85-1.45-3.71-2.55l-1.74-0.82c-0.58-0.27-1.15-0.54-1.72-0.82l-0.95-0.83c-0.33-0.28-0.66-0.57-1-0.87
					c-0.13-0.28-0.33-0.68-0.61-1.22V7.85c0.17-0.28,0.44-0.68,0.79-1.22c0.87-0.46,1.81-0.96,2.8-1.52l0.67-0.09
					c0.23-0.03,0.48-0.06,0.73-0.09c0.47-0.23,1.07-0.58,1.81-1.04h2.25c0.3,0.2,0.6,0.4,0.91,0.61c0.34,0.24,0.6,0.49,0.79,0.74
					c-0.11,0.41-0.28,1.04-0.49,1.88h-0.84c-0.2-0.19-0.44-0.48-0.74-0.86c0-0.36-0.02-0.64-0.05-0.84
					c-1.75,0.21-3.17,0.45-4.25,0.73c-1.11,0.54-2.06,1.14-2.85,1.83c0,0.09-0.04,0.53-0.13,1.33c0.39,0.38,0.98,0.95,1.76,1.7
					c1.03,0.52,2.06,1.05,3.11,1.58l3.15,1.63c0.66,0.6,1.3,1.3,1.94,2.13v0.61c-0.56,0.56-1.25,1.11-2.07,1.63
					c-0.85,0.17-1.81,0.4-2.9,0.67H32.21z"/>
			</g>
			<g>
				<path class="st2" d="M34.89,21.8c0,0.72-0.14,1.48-0.41,2.28c-0.13,0.28-0.3,0.41-0.52,0.41H33.9c-0.3,0-0.48-0.19-0.52-0.57
					c0-0.03,0.03-0.24,0.1-0.62c0-0.17-0.03-0.26-0.1-0.26c0.03-0.52,0.05-0.9,0.05-1.14v-0.47c0-1.29-0.28-6.3-0.83-15.03
					c-0.17-2.82-0.26-4.53-0.26-5.13c0.06-0.52,0.27-0.78,0.62-0.78h0.05c0.45,0,0.67,0.57,0.67,1.71
					C34.49,13.13,34.89,19.66,34.89,21.8z"/>
			</g>
		</g>
	</g>
</g>
<g>
	<g>
		<g>
			<g>
				<path class="st2" d="M4.46,21.15c-0.29-0.15-1.09-0.63-2.4-1.44c-0.44-0.67-1-1.55-1.69-2.66c-0.01-0.18-0.06-0.55-0.16-1.11
					l0.48-2.18c0.16-0.72,0.32-1.44,0.49-2.16l1.95-3.11C3.79,7.45,4.47,6.4,5.17,5.33l1.61-1.23c0.53-0.41,1.1-0.84,1.69-1.28
					C8.7,2.76,9.35,2.59,10.43,2.3l2.99,0.53c0.34,0.21,0.83,0.54,1.48,0.98c0.21,0.5,0.41,0.99,0.59,1.47
					c-0.11,0.6-0.36,1.11-0.76,1.51c-0.54-0.05-0.88-0.11-1.02-0.16c-0.14-0.05-0.37-0.21-0.67-0.49c-0.17-0.39-0.21-0.93-0.14-1.6
					c-0.16-0.02-1.04-0.05-2.63-0.11l-1.57,0.8c-0.52,0.27-1.05,0.54-1.59,0.8c-0.47,0.49-1.2,1.19-2.17,2.13l-1.24,2.18
					c-0.42,0.72-0.83,1.46-1.26,2.21l-0.7,3.96c0.2,0.47,0.44,0.99,0.74,1.56c0.6,0.59,1.18,1.12,1.73,1.59l3.06,0.54
					c0.96-0.37,2-0.78,3.1-1.24c0.84-0.66,2.11-1.63,3.81-2.92c0.02,0.23,0.08,0.47,0.16,0.74c0.16,0.08,0.45,0.21,0.87,0.38
					c-1.26,0.87-3.16,2.16-5.7,3.87c-0.45,0.07-0.91,0.15-1.36,0.24l-1.4,0.28L4.46,21.15z"/>
				<path class="st2" d="M14.02,22.79c-0.15-0.25-0.31-0.56-0.48-0.94l0.43-3.06c0.1-0.77,0.23-1.58,0.38-2.43
					c0.15-0.83,0.34-1.84,0.58-3.02l0.97-4.86c-0.44-1.01-0.62-1.76-0.54-2.23c0.25-0.25,0.6-0.63,1.06-1.16
					c0.18,0,0.37-0.01,0.55-0.02l0.6-0.01c0.31,0.44,0.54,0.77,0.7,0.97c-0.01,0.86-0.01,1.64,0,2.36l0.44,1.27
					c0.14,0.43,0.3,0.87,0.48,1.32l2.74,5.16c0.48,0.96,1.27,2.37,2.36,4.21c0.2,0.29,0.43,0.62,0.71,0.99
					c0.32,0.06,0.58,0.08,0.78,0.07c0.31-1.78,0.59-3.68,0.82-5.69l0.4-3.56c0.15-1.4,0.38-3.29,0.68-5.69
					c-0.03-0.37-0.1-0.93-0.2-1.68l0.57-0.4l1.53,0.27c-0.01,0.43,0,0.86,0.03,1.29l0.07,1.36c-0.12,0.1-0.31,0.23-0.57,0.4
					l-1.1,6.24c-0.13,1.62-0.22,3.03-0.25,4.23l-1.13,6.44c-0.31,0.13-0.53,0.19-0.66,0.17c-0.13,0-0.43-0.08-0.89-0.24
					c-1-1.46-1.86-2.87-2.59-4.22c-0.46-0.83-1.72-2.96-3.77-6.39c-0.07-0.11-0.2-0.39-0.4-0.86c-0.13-0.3-0.27-0.61-0.43-0.93
					c-0.39-0.18-0.65-0.32-0.78-0.43c-0.53,3.04-1.1,6.51-1.69,10.41c-0.62,0.4-0.98,0.62-1.1,0.66c-0.06,0.03-0.11,0.05-0.15,0.04
					C14.12,22.87,14.07,22.85,14.02,22.79z"/>
			</g>
			<g>
				<path class="st2" d="M31.07,23.09c-0.09-0.34-0.24-0.85-0.42-1.54c0.08-0.58,0.31-2.73,0.71-6.46c-0.3-0.12-0.62-0.26-0.95-0.44
					c-0.27-0.74-0.35-1.41-0.24-2.01l1.37-0.96l0.59-3.33C31.9,7.86,31.53,7.51,31,7.3c0-0.36-0.04-0.94-0.12-1.74l1.56-1.1
					l0.22-1.93c0.06-0.66,0.14-1.33,0.22-2.01c0.06-0.05,0.22-0.17,0.49-0.36c0.26,0.05,0.95,0.22,2.05,0.53
					c-0.16,0.92-0.3,2.05-0.42,3.36c1.12,0.09,3.05-0.02,5.8-0.35l5.53,0.72c0.43,0.24,0.87,0.49,1.3,0.75
					c0.52,0.32,0.9,0.64,1.15,0.95l-0.29,1.67L47.12,9c-0.46,0.41-0.92,0.82-1.38,1.24c-1.24,0.53-3.09,1.34-5.57,2.44l-6.42,1.46
					c-0.2,0.99-0.39,2.39-0.56,4.19c-0.18,1.95-0.34,3.35-0.48,4.18C32.3,22.8,31.75,23,31.07,23.09z M33.65,11.81
					c0.92,0.05,1.68,0.12,2.28,0.23c2-0.41,4.35-1.08,7.04-2.03l2.93-2.05c0.35-0.65,0.57-1.09,0.66-1.33
					c-0.81-0.22-1.49-0.37-2.03-0.45c-0.54-0.08-2.01-0.26-4.41-0.52c-2.18,0.39-3.94,0.65-5.28,0.79c-0.2,0.92-0.4,1.83-0.6,2.73
					L33.65,11.81z"/>
			</g>
		</g>
	</g>
</g>
<g class="st0">
	<g class="st1">
		<g>
			<path class="st3" d="M31.42,16.16c-0.2,0.12-0.38,0.28-0.54,0.5l-0.02,0.01c-0.07,0.03-0.12,0.02-0.15-0.04l-0.01-0.01
				c-0.07-0.12,0.13-0.34,0.6-0.66l0.13-0.08c0.03-0.02,0.07-0.03,0.11-0.05l0.01-0.01l-0.01-0.01c-0.31,0.06-0.61,0.18-0.91,0.36
				c-0.64,0.38-1.08,0.88-1.32,1.48c-0.11,0.43-0.08,0.79,0.1,1.09l0.03,0.05c0.29,0.48,0.84,0.62,1.65,0.44
				c0.35-0.09,0.65-0.22,0.9-0.37c0.41-0.24,0.71-0.54,0.9-0.9c-0.04-0.07-0.01-0.14,0.09-0.2c0.18-0.52,0.16-0.95-0.05-1.3
				c-0.23-0.38-0.62-0.53-1.16-0.44C31.62,16.06,31.5,16.11,31.42,16.16z M33.21,16.3c0.21,0.35,0.26,0.79,0.15,1.31
				c-0.17,0.62-0.57,1.11-1.2,1.48l-0.01,0.01c-0.72,0.43-1.43,0.58-2.14,0.45c-0.37-0.12-0.64-0.32-0.8-0.59l-0.03-0.06
				c-0.34-0.56-0.3-1.18,0.11-1.86c0.31-0.46,0.71-0.84,1.21-1.13c0.82-0.49,1.55-0.54,2.19-0.16
				C32.92,15.92,33.09,16.11,33.21,16.3z"/>
			<g>
				<path class="st2" d="M29.11,16.57l0.04,0.01c0.03-0.01,0.06-0.01,0.09-0.01h0.02c0.03,0,0.06,0.02,0.08,0.07
					c0,0.03,0.77,0.05,2.32,0.07c0.5,0.03,0.91,0.07,1.23,0.11c0.24,0.04,0.37,0.08,0.37,0.12c0.01,0.01,0.01,0.02,0.01,0.03v0.02
					c0,0.01-0.01,0.03-0.02,0.06h0.04c0.58,0,0.89,0.03,0.94,0.08c0.02,0.03,0.04,0.06,0.04,0.09c0,0.07-0.04,0.1-0.11,0.1
					c-0.06-0.04-0.31-0.07-0.74-0.07c-1.91,0-3.19-0.05-3.83-0.16c-0.27-0.02-0.42-0.04-0.46-0.05c-0.03-0.02-0.04-0.05-0.04-0.09
					v-0.01c0.01-0.06,0.05-0.1,0.09-0.1c0.25,0.01,0.44,0.02,0.57,0.02h0.09v-0.01c-0.54-0.02-0.81-0.08-0.81-0.2v-0.01
					C29.04,16.6,29.07,16.57,29.11,16.57z"/>
			</g>
			<g>
				<path class="st2" d="M24.74,0.15h0.65c2.68,0,5.4,1.17,8.15,3.51c2.9,2.99,4.34,6.22,4.34,9.68v0.05c0,3.73-1.42,6.74-4.25,9.03
					c-2.19,1.58-4.73,2.38-7.62,2.38h-0.15c-0.11,0-0.19,0.02-0.24,0.05l-0.29-0.05h-0.2c-2.95,0-5.77-0.94-8.44-2.82
					c-1.65-1.4-2.66-2.54-3.03-3.42c-1.21-1.93-1.82-4.04-1.82-6.31c0-3.16,1.19-5.89,3.56-8.2c0.93-0.8,1.94-1.43,3.01-1.89
					C20.5,0.82,22.6,0.15,24.74,0.15z M22.87,1.68v0.05c1.58,0.17,3.31,0.84,5.19,1.99c1.58,1.24,2.68,2.37,3.3,3.4
					c0.53,0.88,0.8,1.57,0.8,2.08v0.1c-0.03,0.39-0.2,0.59-0.5,0.59h-0.1c-0.33,0-0.49-0.31-0.49-0.94
					c-1.08-2.41-3.12-4.24-6.12-5.48c-1.26-0.35-2.3-0.53-3.12-0.54c-1.74,0-2.93,0.36-3.6,1.09c-1.88,1.67-2.82,3.14-2.82,4.39
					v0.05c0,0.5,0.24,0.96,0.73,1.38l0.05,0.24c-0.07,0.34-0.23,0.5-0.49,0.5h-0.05c-0.35,0-0.73-0.38-1.14-1.14
					c-0.1-0.29-0.16-0.66-0.2-1.09c0.03-0.33,0.08-0.66,0.15-0.99V7.31h-0.05c-0.86,1.7-1.29,3.38-1.29,5.04
					c0,3.07,1.3,5.82,3.91,8.25c1.07,0.84,2.19,1.49,3.35,1.97c1.94,0.66,3.64,0.99,5.09,0.99c5.08,0,8.53-2.04,10.36-6.12
					c0.5-1.35,0.75-2.66,0.75-3.95V13.2c0-2.73-1.17-5.43-3.51-8.1C30.6,2.69,28,1.48,25.29,1.48h-0.24
					C24.35,1.48,23.62,1.55,22.87,1.68z"/>
			</g>
			<g>
				<path class="st2" d="M33.05,6.79c0.93,0,1.4,0.23,1.4,0.68c2.59,0.14,3.88,0.38,3.88,0.72c0.06,0,0.09,0.08,0.09,0.23v0.27
					c0,0.38-0.35,0.6-1.04,0.68c0,0.03-0.06,0.05-0.18,0.05c-0.26,0-0.41-0.17-0.45-0.5c-1.82-0.18-3.61-0.27-5.37-0.27
					c-5.24,0.66-9.32,0.99-12.23,0.99c-0.68,0.06-1.92,0.11-3.7,0.14c-0.33-0.14-0.5-0.34-0.5-0.59V9.13c0-0.2,0.09-0.38,0.27-0.54
					h-0.05c-0.5,0-1.74,0.24-3.7,0.72c-0.09,0.03-0.27,0.05-0.54,0.05c-0.14-0.05-0.26-0.16-0.36-0.32V8.82
					c0-0.36,0.57-0.63,1.71-0.81c1.92-0.66,6.27-0.99,13.04-0.99C28.71,6.86,31.28,6.79,33.05,6.79z"/>
			</g>
		</g>
	</g>
</g>
</svg>
