<?xml version="1.0" encoding="utf-8"?>
<!-- Generator: Adobe Illustrator 23.0.1, SVG Export Plug-In . SVG Version: 6.00 Build 0)  -->
<svg version="1.1" id="Calque_1" xmlns="http://www.w3.org/2000/svg" xmlns:xlink="http://www.w3.org/1999/xlink" x="0px" y="0px"
	 width="30px" height="30px" viewBox="0 0 30 30" style="enable-background:new 0 0 30 30;" xml:space="preserve">
<style type="text/css">
	.st0{fill:#00FF00;}
</style>
<g>
	<g>
		<path class="st0" d="M1.81,1.46C2.19,1.5,2.38,1.7,2.38,2.03v0.05C2.3,2.46,2.26,2.67,2.26,2.72v0.05
			c0.25-0.23,0.46-0.34,0.63-0.34c7.52,0.47,12.8,0.7,15.82,0.7h9.08c0.84,0,1.26,0.36,1.26,1.08c0,0.1-0.42,1.3-1.26,3.62
			c-1.07,3.2-1.6,6.38-1.6,9.55c0,3.89,0.92,7.13,2.76,9.71c0.07,0.14,0.11,0.3,0.11,0.47v0.11c-0.11,0.58-0.45,0.87-1.03,0.87
			c-6.81-0.38-11.32-0.58-13.52-0.58h-1.5c-0.59,0-3.89,0.08-9.89,0.23c-0.82,0-1.41-0.42-1.78-1.26c-0.07-0.25-0.13-0.65-0.16-1.21
			c0.34-4.58,0.5-8.16,0.5-10.76c0-3.78-0.25-7.7-0.74-11.73C0.94,2.05,1.23,1.46,1.81,1.46z M3.93,4.05
			c0.19,1.14,0.29,2.21,0.29,3.21v0.7c0,1.62-0.37,6.05-1.1,13.28l-0.11,1.6c0,1.37,0.32,2.21,0.97,2.52
			c0.8,0.38,1.82,0.58,3.05,0.58c1,0,5.14-0.36,12.44-1.08c0.2,0,0.74-0.02,1.6-0.05c0.16,0,0.83,0.04,2.02,0.11
			c0.11-0.26,0.28-0.4,0.5-0.4h0.29c0.23,0,0.48,0.47,0.76,1.42v0.18c-0.08,0.38-0.22,0.58-0.41,0.58v0.05l2.65,0.18v-0.07
			c-1.53-2.49-2.29-5.68-2.29-9.59c0-4.12,0.88-8.3,2.63-12.54h-7.7C15.2,4.74,10,4.51,3.93,4.05z M19.74,26.47v0.05
			c0.72,0,1.91,0.06,3.57,0.18h0.07v-0.05c-0.61-0.16-1.46-0.23-2.54-0.23H20.6C20.41,26.42,20.12,26.43,19.74,26.47z"/>
	</g>
	<g>
		<path class="st0" d="M28.03,28.99l-0.02,0c-6.77-0.38-11.31-0.58-13.49-0.58h-1.5c-0.58,0-3.82,0.08-9.88,0.23l-0.01,0
			c-0.99,0-1.75-0.53-2.19-1.53l-0.01-0.03l-0.01-0.03c-0.08-0.29-0.14-0.71-0.18-1.3l0-0.03l0-0.03c0.33-4.55,0.5-8.16,0.5-10.73
			c0-3.75-0.25-7.68-0.74-11.68l0-0.03V3.24c0-1.02,0.23-2.23,1.31-2.23h0.03l0.03,0c0.59,0.07,0.95,0.44,0.96,0.97
			c0.02,0,0.04,0,0.06,0l0.03,0c7.48,0.47,12.79,0.7,15.8,0.7h9.08c1.08,0,1.7,0.56,1.7,1.52c0,0.12,0,0.22-1.29,3.77
			c-1.05,3.13-1.58,6.3-1.58,9.41c0,3.78,0.9,6.96,2.68,9.46l0.02,0.03l0.02,0.03c0.1,0.21,0.15,0.43,0.15,0.67v0.15l-0.01,0.04
			C29.34,28.55,28.82,28.99,28.03,28.99z M13.02,27.52h1.5c2.19,0,6.75,0.19,13.53,0.58c0.34,0,0.5-0.13,0.57-0.47v-0.06
			c0-0.09-0.02-0.17-0.05-0.24c-1.87-2.64-2.82-5.99-2.82-9.94c0-3.21,0.55-6.47,1.63-9.69l0-0.01c0.96-2.66,1.19-3.35,1.23-3.51
			c-0.01-0.31-0.09-0.6-0.82-0.6h-9.08c-3.02,0-8.34-0.24-15.83-0.7c-0.02,0-0.12,0.04-0.33,0.23L1.82,3.77V2.72
			c0-0.06,0-0.12,0.13-0.68v0c0-0.08,0-0.11-0.16-0.13c-0.36,0.04-0.4,0.98-0.4,1.31c0.49,4.03,0.74,7.98,0.74,11.76
			c0,2.59-0.17,6.21-0.5,10.76c0.04,0.59,0.09,0.9,0.14,1.06c0.3,0.66,0.73,0.97,1.36,0.97C9.19,27.6,12.43,27.52,13.02,27.52z
			 M28.62,4.15L28.62,4.15L28.62,4.15z M27.32,27.41l-3.53-0.24v-0.03l-0.51,0c-1.64-0.12-2.83-0.18-3.54-0.18H19.3v-0.9l0.4-0.04
			c0.4-0.04,0.7-0.06,0.91-0.06h0.23c1.13,0,1.99,0.08,2.65,0.25l0.29,0.08v-0.03h0.35c0.02-0.03,0.04-0.09,0.06-0.18v-0.07
			c-0.21-0.7-0.35-0.96-0.42-1.04H23.6c-0.01,0-0.05,0-0.09,0.12l-0.12,0.29l-0.32-0.02c-1.43-0.09-1.87-0.11-1.98-0.11
			c-0.84,0.04-1.37,0.05-1.59,0.05c-7.36,0.73-11.44,1.08-12.46,1.08c-1.29,0-2.38-0.21-3.24-0.62c-0.81-0.39-1.23-1.37-1.23-2.92
			l0-0.03l0.11-1.62c0.73-7.19,1.1-11.64,1.1-13.24v-0.7c0-0.97-0.09-2.02-0.28-3.13L3.4,3.57l0.56,0.04
			c6.03,0.45,11.26,0.68,15.56,0.68h8.36l-0.25,0.61c-1.72,4.17-2.6,8.33-2.6,12.37c0,3.8,0.75,6.95,2.22,9.36l0.07,0.11V27.41z
			 M25.04,26.37l1.09,0.07c-1.31-2.45-1.98-5.53-1.98-9.16c0-3.96,0.81-8.03,2.42-12.1h-7.04c-4.19,0-9.25-0.22-15.07-0.64
			C4.6,5.49,4.67,6.41,4.67,7.26v0.7c0,1.65-0.36,6.01-1.1,13.32l-0.11,1.58c0,0.81,0.13,1.82,0.72,2.11
			c0.74,0.35,1.7,0.53,2.85,0.53c0.98,0,5.15-0.36,12.39-1.08l0.04,0c0.2,0,0.73-0.02,1.59-0.05l0.02,0c0.06,0,0.23,0,1.77,0.09
			c0.24-0.32,0.56-0.38,0.75-0.38h0.29c0.56,0,0.88,0.7,1.18,1.74l0.02,0.06v0.29l-0.01,0.05C25.06,26.28,25.05,26.32,25.04,26.37z"
			/>
	</g>
</g>
</svg>
